<svg width="39" height="27" viewBox="0 0 39 27" fill="none" xmlns="http://www.w3.org/2000/svg">
<rect y="0.970703" width="38.1912" height="25.2306" rx="1.90956" fill="#EDEDED"/>
<path d="M33.4176 14.242V12.9153H31.3087V10.6748H29.798V12.9153H27.689V14.242H29.798V16.4973H31.3087V14.242H33.4176Z" fill="#00003D"/>
<path d="M11.4931 6.79297C12.2432 6.79297 12.9341 6.87899 13.5658 7.05104C14.1975 7.2108 14.7436 7.45659 15.2042 7.78839C15.6648 8.10791 16.0202 8.50117 16.2702 8.96816C16.5334 9.43515 16.665 9.96358 16.665 10.5535C16.665 11.2539 16.5071 11.9237 16.1912 12.5627C15.8886 13.2018 15.4411 13.8224 14.8489 14.4246C14.2699 15.0267 13.5592 15.6166 12.717 16.1942C11.8747 16.7595 10.9272 17.3248 9.87442 17.8901H16.7242V20.3787H5.729V17.8901C6.68969 17.2388 7.63063 16.6059 8.55183 15.9914C9.47304 15.3647 10.289 14.7564 10.9996 14.1665C11.7234 13.5643 12.3024 12.9806 12.7367 12.4153C13.171 11.85 13.3881 11.2908 13.3881 10.7378C13.3881 10.1602 13.1907 9.73623 12.7959 9.46587C12.4011 9.18322 11.934 9.04189 11.3944 9.04189C11.1049 9.04189 10.8154 9.09105 10.5258 9.18936C10.2495 9.27539 9.99944 9.42286 9.77572 9.63178C9.56516 9.84069 9.39408 10.1295 9.26248 10.4982C9.13088 10.8546 9.07824 11.297 9.10456 11.8254H5.88692C5.8606 11.0389 5.97904 10.3323 6.24225 9.70551C6.51861 9.07876 6.90683 8.55032 7.40691 8.1202C7.90699 7.69008 8.50577 7.36442 9.20326 7.14321C9.90074 6.90972 10.664 6.79297 11.4931 6.79297Z" fill="#00003D"/>
<path d="M21.5872 20.3787V11.4014H18.3301V9.17093C18.9223 9.15864 19.4356 9.10948 19.8698 9.02346C20.3173 8.92515 20.6989 8.78996 21.0148 8.61792C21.3306 8.44587 21.5938 8.23081 21.8044 7.97273C22.0149 7.70237 22.1992 7.38285 22.3571 7.01417H24.8246V20.3787H21.5872Z" fill="#00003D"/>
</svg>
