<svg width="41" height="57" viewBox="0 0 41 57" fill="none" xmlns="http://www.w3.org/2000/svg">
<g filter="url(#filter0_d_92_263)">
<path fill-rule="evenodd" clip-rule="evenodd" d="M33.3432 22.748C32.3075 22.6444 31.2857 22.5687 29.4888 22.5209C28.5511 20.3547 27.2346 18.2363 25.918 16.2572C25.8807 16.1762 25.8469 16.0986 25.8144 16.0237C25.674 15.7009 25.5559 15.4292 25.2748 15.1576C24.2852 14.2013 23.741 13.3885 23.3946 12.0976C23.2957 11.5239 22.5535 9.46802 21.8114 9.46802C21.5689 9.46802 21.1325 9.63201 20.7398 9.7796L20.7398 9.77961C20.5715 9.84286 20.4112 9.9031 20.2776 9.94613C19.8817 10.0896 19.4365 10.1852 19.0406 10.1852C18.9273 10.1852 18.814 10.135 18.6912 10.0807C18.5459 10.0163 18.3872 9.94613 18.1995 9.94613C17.9021 9.94613 17.649 10.0175 17.3918 10.0901C17.1783 10.1503 16.962 10.2113 16.7152 10.233C16.4678 10.6633 16.3689 11.1414 16.3689 11.6673C16.3689 12.6236 16.7647 13.8667 17.6058 14.4404C18.112 15.5411 18.5823 16.1899 19.0473 16.8314L19.0473 16.8315C19.1277 16.9423 19.2078 17.0529 19.288 17.1656C19.3276 17.2517 19.3652 17.3377 19.4028 17.4238L19.4028 17.4238C19.5532 17.7681 19.7036 18.1123 19.9807 18.4566C20.0872 18.6367 20.3515 19.0316 20.6809 19.5239L20.6809 19.5239L20.6809 19.5239C21.2777 20.4158 22.0882 21.6271 22.5614 22.4589C22.0461 22.4535 21.5112 22.4094 20.9709 22.3648C20.3818 22.3163 19.7864 22.2671 19.2032 22.2671C18.9417 22.2671 18.682 22.2691 18.4243 22.271H18.4243C17.4032 22.2787 16.4126 22.2862 15.4528 22.171C14.4431 22.0748 13.4814 22.0267 12.4717 22.0267C11.6131 22.0267 10.9753 22.0022 10.6108 21.9882H10.6108L10.6106 21.9882C10.4649 21.9826 10.3629 21.9787 10.308 21.9787C9.77905 21.9787 9.25015 22.0267 8.72124 22.1229C8.63244 22.2413 8.5072 22.305 8.37917 22.3702C8.29922 22.4109 8.21818 22.4521 8.14425 22.5076C8.09616 22.6037 8.04808 22.7961 8 23.0365C8 23.1807 8.09616 23.373 8.24041 23.5654C8.19233 23.902 8.14425 24.2866 8.14425 24.6232C8.14425 25.0559 8.19233 25.5368 8.43274 25.9695C8.43274 26.2259 8.41137 26.3755 8.39713 26.4753C8.39 26.5251 8.38466 26.5625 8.38466 26.5946C8.38466 26.6907 8.38466 26.835 8.43274 26.9792C8.80626 26.9792 9.14109 26.9921 9.46394 27.0046C9.7645 27.0161 10.0547 27.0273 10.356 27.0273C10.6816 27.0273 10.9811 27.0012 11.2681 26.9762C11.5321 26.9532 11.7855 26.9312 12.0389 26.9312C12.9525 26.9312 13.9142 26.9312 15.2605 27.0754C15.9135 27.0754 16.5867 27.1156 17.2799 27.1571C17.6586 27.1797 18.0433 27.2027 18.4339 27.2197L18.5507 27.2198C18.1654 27.5392 17.7648 27.844 17.3627 28.1498L17.3627 28.1499L17.3627 28.1499C16.3767 28.9001 15.3824 29.6565 14.5877 30.6484C14.4395 30.692 14.3063 30.7543 14.1872 30.8321C13.6191 30.8001 13.0534 30.7842 12.4717 30.7842C11.6131 30.7842 10.9752 30.7597 10.6108 30.7456C10.465 30.74 10.3629 30.7361 10.308 30.7361C9.77905 30.7361 9.25015 30.7842 8.72124 30.8804C8.63244 30.9988 8.5072 31.0625 8.37917 31.1276C8.29922 31.1683 8.21818 31.2096 8.14425 31.265C8.09616 31.3612 8.04808 31.5535 8 31.7939C8 31.9382 8.09616 32.1305 8.24041 32.3228C8.19233 32.6594 8.14425 33.0441 8.14425 33.3806C8.14425 33.8134 8.19233 34.2942 8.43274 34.727C8.43274 34.9834 8.41137 35.133 8.39713 35.2327C8.39 35.2826 8.38466 35.32 8.38466 35.352C8.38466 35.4482 8.38466 35.5924 8.43274 35.7367C8.80626 35.7367 9.14109 35.7496 9.46394 35.762C9.7645 35.7736 10.0547 35.7848 10.356 35.7848C10.6816 35.7848 10.9811 35.7587 11.2681 35.7337C11.5321 35.7107 11.7855 35.6886 12.0389 35.6886C12.4883 35.6886 12.9494 35.6886 13.4621 35.7058C13.5376 35.8393 13.6174 35.9816 13.6971 36.1468C13.823 36.4104 13.8867 36.6913 13.9484 36.9639C14.0321 37.3338 14.1124 37.6883 14.3403 37.9636C14.4055 38.0476 14.4898 38.1131 14.5764 38.1805C14.6869 38.2665 14.8013 38.3554 14.8846 38.4895C15.0206 38.7261 15.1267 39.035 15.2358 39.3526L15.2358 39.3526C15.3251 39.6126 15.4164 39.8784 15.5278 40.1151C15.6515 40.3781 15.7751 40.6291 15.8988 40.8801L15.8989 40.8801C16.0225 41.1311 16.1462 41.3821 16.2699 41.6451C16.3094 41.7341 16.3349 41.8367 16.3613 41.9429C16.4341 42.2359 16.5137 42.5566 16.9131 42.6969C17.0863 43.2706 17.3337 43.8205 17.5811 44.3703C17.8284 44.9201 18.0758 45.47 18.249 46.0437C18.4868 46.1203 18.7961 46.289 19.1164 46.4637C19.5957 46.7251 20.0998 46.9999 20.426 46.9999C20.5411 46.9999 20.6227 46.9191 20.7195 46.8232C20.7892 46.7543 20.8667 46.6775 20.9702 46.6174C21.0661 46.5557 21.2033 46.5936 21.3284 46.6283L21.3284 46.6283C21.397 46.6473 21.4619 46.6652 21.5145 46.6652C21.7331 46.6652 21.8531 46.5319 21.9742 46.3975C22.0449 46.319 22.1159 46.24 22.2072 46.1871C22.2731 46.2031 22.3391 46.2243 22.4051 46.2456C22.537 46.2881 22.669 46.3306 22.8009 46.3306C23.0652 46.3306 23.1377 46.2295 23.2255 46.1074C23.2856 46.0238 23.3528 45.9302 23.4936 45.8525C24.0055 45.5742 24.1657 45.3559 24.2819 45.1977C24.3453 45.1111 24.3957 45.0425 24.4831 44.9919C24.1527 43.7503 23.5773 42.6404 22.9991 41.5253C22.798 41.1375 22.5966 40.749 22.4051 40.3542C22.2947 40.0608 22.1381 39.8121 21.9783 39.5582C21.8516 39.3569 21.7228 39.1524 21.6134 38.9198C21.5303 38.7501 21.4212 38.5388 21.2988 38.3016C20.949 37.6235 20.4902 36.7345 20.2165 36.0058C20.7827 36.0214 21.3724 36.0418 21.9816 36.0629C22.0807 36.0664 22.1804 36.0698 22.2805 36.0733C28.631 36.2656 30.0255 36.2656 31.3718 36.2656H31.3718C31.6843 36.2656 31.9413 36.2815 32.1942 36.2971C32.5641 36.3199 32.9254 36.3422 33.4394 36.3137C33.512 36.1442 33.5237 35.9748 33.5358 35.7992C33.5477 35.626 33.5601 35.4469 33.6317 35.2559C33.5355 35.1597 33.4874 35.0635 33.4874 34.8712C33.4874 34.8513 33.4957 34.8231 33.5054 34.7901C33.519 34.7435 33.5355 34.6871 33.5355 34.6308L33.6798 33.8134C33.6317 33.7172 33.6317 33.5249 33.6798 33.2364C33.6798 33.1883 33.6798 33.1402 33.7279 33.0922C33.7279 33.0874 33.7283 33.0827 33.7288 33.0774C33.7336 33.0291 33.7429 32.9346 33.4394 32.3709C33.4394 32.2301 33.4136 32.0378 33.3809 31.7939C33.369 31.7047 33.3561 31.6085 33.3432 31.5054C31.4921 31.3203 29.6855 31.2243 23.419 31.2173C24.795 29.9916 26.2143 28.7992 27.6497 27.6841C27.7211 27.6289 27.7843 27.5538 27.8428 27.4667C29.7407 27.5082 30.5649 27.5082 31.3718 27.5082H31.3718C31.6843 27.5082 31.9413 27.524 32.1942 27.5396H32.1943C32.5641 27.5625 32.9254 27.5848 33.4394 27.5562C33.512 27.3868 33.5237 27.2173 33.5358 27.0417C33.5477 26.8686 33.5601 26.6894 33.6317 26.4984C33.5355 26.4023 33.4874 26.3061 33.4874 26.1138C33.4874 26.0938 33.4957 26.0657 33.5054 26.0327C33.519 25.986 33.5355 25.9297 33.5355 25.8733L33.6798 25.0559C33.6317 24.9598 33.6317 24.7674 33.6798 24.4789C33.6798 24.4309 33.6798 24.3828 33.7279 24.3347C33.7279 24.33 33.7283 24.3252 33.7288 24.32C33.7336 24.2716 33.7429 24.1771 33.4394 23.6135C33.4394 23.4727 33.4136 23.2803 33.3809 23.0365L33.3809 23.0364C33.369 22.9472 33.3561 22.851 33.3432 22.748Z" fill="#EDEDED"/>
<path fill-rule="evenodd" clip-rule="evenodd" d="M33.3432 22.748C32.3075 22.6444 31.2857 22.5687 29.4888 22.5209C28.5511 20.3547 27.2346 18.2363 25.918 16.2572C25.8807 16.1762 25.8469 16.0986 25.8144 16.0237C25.674 15.7009 25.5559 15.4292 25.2748 15.1576C24.2852 14.2013 23.741 13.3885 23.3946 12.0976C23.2957 11.5239 22.5535 9.46802 21.8114 9.46802C21.5689 9.46802 21.1325 9.63201 20.7398 9.7796L20.7398 9.77961C20.5715 9.84286 20.4112 9.9031 20.2776 9.94613C19.8817 10.0896 19.4365 10.1852 19.0406 10.1852C18.9273 10.1852 18.814 10.135 18.6912 10.0807C18.5459 10.0163 18.3872 9.94613 18.1995 9.94613C17.9021 9.94613 17.649 10.0175 17.3918 10.0901C17.1783 10.1503 16.962 10.2113 16.7152 10.233C16.4678 10.6633 16.3689 11.1414 16.3689 11.6673C16.3689 12.6236 16.7647 13.8667 17.6058 14.4404C18.112 15.5411 18.5823 16.1899 19.0473 16.8314L19.0473 16.8315C19.1277 16.9423 19.2078 17.0529 19.288 17.1656C19.3276 17.2517 19.3652 17.3377 19.4028 17.4238L19.4028 17.4238C19.5532 17.7681 19.7036 18.1123 19.9807 18.4566C20.0872 18.6367 20.3515 19.0316 20.6809 19.5239L20.6809 19.5239L20.6809 19.5239C21.2777 20.4158 22.0882 21.6271 22.5614 22.4589C22.0461 22.4535 21.5112 22.4094 20.9709 22.3648C20.3818 22.3163 19.7864 22.2671 19.2032 22.2671C18.9417 22.2671 18.682 22.2691 18.4243 22.271H18.4243C17.4032 22.2787 16.4126 22.2862 15.4528 22.171C14.4431 22.0748 13.4814 22.0267 12.4717 22.0267C11.6131 22.0267 10.9753 22.0022 10.6108 21.9882H10.6108L10.6106 21.9882C10.4649 21.9826 10.3629 21.9787 10.308 21.9787C9.77905 21.9787 9.25015 22.0267 8.72124 22.1229C8.63244 22.2413 8.5072 22.305 8.37917 22.3702C8.29922 22.4109 8.21818 22.4521 8.14425 22.5076C8.09616 22.6037 8.04808 22.7961 8 23.0365C8 23.1807 8.09616 23.373 8.24041 23.5654C8.19233 23.902 8.14425 24.2866 8.14425 24.6232C8.14425 25.0559 8.19233 25.5368 8.43274 25.9695C8.43274 26.2259 8.41137 26.3755 8.39713 26.4753C8.39 26.5251 8.38466 26.5625 8.38466 26.5946C8.38466 26.6907 8.38466 26.835 8.43274 26.9792C8.80626 26.9792 9.14109 26.9921 9.46394 27.0046C9.7645 27.0161 10.0547 27.0273 10.356 27.0273C10.6816 27.0273 10.9811 27.0012 11.2681 26.9762C11.5321 26.9532 11.7855 26.9312 12.0389 26.9312C12.9525 26.9312 13.9142 26.9312 15.2605 27.0754C15.9135 27.0754 16.5867 27.1156 17.2799 27.1571C17.6586 27.1797 18.0433 27.2027 18.4339 27.2197L18.5507 27.2198C18.1654 27.5392 17.7648 27.844 17.3627 28.1498L17.3627 28.1499L17.3627 28.1499C16.3767 28.9001 15.3824 29.6565 14.5877 30.6484C14.4395 30.692 14.3063 30.7543 14.1872 30.8321C13.6191 30.8001 13.0534 30.7842 12.4717 30.7842C11.6131 30.7842 10.9752 30.7597 10.6108 30.7456C10.465 30.74 10.3629 30.7361 10.308 30.7361C9.77905 30.7361 9.25015 30.7842 8.72124 30.8804C8.63244 30.9988 8.5072 31.0625 8.37917 31.1276C8.29922 31.1683 8.21818 31.2096 8.14425 31.265C8.09616 31.3612 8.04808 31.5535 8 31.7939C8 31.9382 8.09616 32.1305 8.24041 32.3228C8.19233 32.6594 8.14425 33.0441 8.14425 33.3806C8.14425 33.8134 8.19233 34.2942 8.43274 34.727C8.43274 34.9834 8.41137 35.133 8.39713 35.2327C8.39 35.2826 8.38466 35.32 8.38466 35.352C8.38466 35.4482 8.38466 35.5924 8.43274 35.7367C8.80626 35.7367 9.14109 35.7496 9.46394 35.762C9.7645 35.7736 10.0547 35.7848 10.356 35.7848C10.6816 35.7848 10.9811 35.7587 11.2681 35.7337C11.5321 35.7107 11.7855 35.6886 12.0389 35.6886C12.4883 35.6886 12.9494 35.6886 13.4621 35.7058C13.5376 35.8393 13.6174 35.9816 13.6971 36.1468C13.823 36.4104 13.8867 36.6913 13.9484 36.9639C14.0321 37.3338 14.1124 37.6883 14.3403 37.9636C14.4055 38.0476 14.4898 38.1131 14.5764 38.1805C14.6869 38.2665 14.8013 38.3554 14.8846 38.4895C15.0206 38.7261 15.1267 39.035 15.2358 39.3526L15.2358 39.3526C15.3251 39.6126 15.4164 39.8784 15.5278 40.1151C15.6515 40.3781 15.7751 40.6291 15.8988 40.8801L15.8989 40.8801C16.0225 41.1311 16.1462 41.3821 16.2699 41.6451C16.3094 41.7341 16.3349 41.8367 16.3613 41.9429C16.4341 42.2359 16.5137 42.5566 16.9131 42.6969C17.0863 43.2706 17.3337 43.8205 17.5811 44.3703C17.8284 44.9201 18.0758 45.47 18.249 46.0437C18.4868 46.1203 18.7961 46.289 19.1164 46.4637C19.5957 46.7251 20.0998 46.9999 20.426 46.9999C20.5411 46.9999 20.6227 46.9191 20.7195 46.8232C20.7892 46.7543 20.8667 46.6775 20.9702 46.6174C21.0661 46.5557 21.2033 46.5936 21.3284 46.6283L21.3284 46.6283C21.397 46.6473 21.4619 46.6652 21.5145 46.6652C21.7331 46.6652 21.8531 46.5319 21.9742 46.3975C22.0449 46.319 22.1159 46.24 22.2072 46.1871C22.2731 46.2031 22.3391 46.2243 22.4051 46.2456C22.537 46.2881 22.669 46.3306 22.8009 46.3306C23.0652 46.3306 23.1377 46.2295 23.2255 46.1074C23.2856 46.0238 23.3528 45.9302 23.4936 45.8525C24.0055 45.5742 24.1657 45.3559 24.2819 45.1977C24.3453 45.1111 24.3957 45.0425 24.4831 44.9919C24.1527 43.7503 23.5773 42.6404 22.9991 41.5253C22.798 41.1375 22.5966 40.749 22.4051 40.3542C22.2947 40.0608 22.1381 39.8121 21.9783 39.5582C21.8516 39.3569 21.7228 39.1524 21.6134 38.9198C21.5303 38.7501 21.4212 38.5388 21.2988 38.3016C20.949 37.6235 20.4902 36.7345 20.2165 36.0058C20.7827 36.0214 21.3724 36.0418 21.9816 36.0629C22.0807 36.0664 22.1804 36.0698 22.2805 36.0733C28.631 36.2656 30.0255 36.2656 31.3718 36.2656H31.3718C31.6843 36.2656 31.9413 36.2815 32.1942 36.2971C32.5641 36.3199 32.9254 36.3422 33.4394 36.3137C33.512 36.1442 33.5237 35.9748 33.5358 35.7992C33.5477 35.626 33.5601 35.4469 33.6317 35.2559C33.5355 35.1597 33.4874 35.0635 33.4874 34.8712C33.4874 34.8513 33.4957 34.8231 33.5054 34.7901C33.519 34.7435 33.5355 34.6871 33.5355 34.6308L33.6798 33.8134C33.6317 33.7172 33.6317 33.5249 33.6798 33.2364C33.6798 33.1883 33.6798 33.1402 33.7279 33.0922C33.7279 33.0874 33.7283 33.0827 33.7288 33.0774C33.7336 33.0291 33.7429 32.9346 33.4394 32.3709C33.4394 32.2301 33.4136 32.0378 33.3809 31.7939C33.369 31.7047 33.3561 31.6085 33.3432 31.5054C31.4921 31.3203 29.6855 31.2243 23.419 31.2173C24.795 29.9916 26.2143 28.7992 27.6497 27.6841C27.7211 27.6289 27.7843 27.5538 27.8428 27.4667C29.7407 27.5082 30.5649 27.5082 31.3718 27.5082H31.3718C31.6843 27.5082 31.9413 27.524 32.1942 27.5396H32.1943C32.5641 27.5625 32.9254 27.5848 33.4394 27.5562C33.512 27.3868 33.5237 27.2173 33.5358 27.0417C33.5477 26.8686 33.5601 26.6894 33.6317 26.4984C33.5355 26.4023 33.4874 26.3061 33.4874 26.1138C33.4874 26.0938 33.4957 26.0657 33.5054 26.0327C33.519 25.986 33.5355 25.9297 33.5355 25.8733L33.6798 25.0559C33.6317 24.9598 33.6317 24.7674 33.6798 24.4789C33.6798 24.4309 33.6798 24.3828 33.7279 24.3347C33.7279 24.33 33.7283 24.3252 33.7288 24.32C33.7336 24.2716 33.7429 24.1771 33.4394 23.6135C33.4394 23.4727 33.4136 23.2803 33.3809 23.0365L33.3809 23.0364C33.369 22.9472 33.3561 22.851 33.3432 22.748Z" fill="url(#paint0_linear_92_263)"/>
<path fill-rule="evenodd" clip-rule="evenodd" d="M33.3432 18.28C32.3075 18.1764 31.2857 18.1007 29.4888 18.0529C28.5511 15.8867 27.2346 13.7683 25.918 11.7892C25.8807 11.7082 25.8469 11.6306 25.8144 11.5557C25.674 11.2329 25.5559 10.9612 25.2748 10.6896C24.2852 9.73332 23.741 8.92053 23.3946 7.62962C23.2957 7.05589 22.5535 5 21.8114 5C21.5689 5 21.1325 5.16399 20.7398 5.31159L20.7398 5.31159C20.5715 5.37484 20.4112 5.43508 20.2776 5.47811C19.8817 5.62155 19.4365 5.71717 19.0406 5.71717C18.9273 5.71717 18.814 5.66702 18.6912 5.61265C18.5459 5.54833 18.3872 5.47811 18.1995 5.47811C17.9021 5.47811 17.649 5.54951 17.3918 5.62207C17.1783 5.68229 16.962 5.7433 16.7152 5.76498C16.4678 6.19528 16.3689 6.6734 16.3689 7.19932C16.3689 8.15555 16.7647 9.39864 17.6058 9.97238C18.112 11.0731 18.5823 11.7219 19.0473 12.3634L19.0473 12.3634C19.1277 12.4743 19.2078 12.5849 19.288 12.6976C19.3276 12.7837 19.3652 12.8697 19.4028 12.9558C19.5532 13.3 19.7036 13.6443 19.9807 13.9885C20.0872 14.1687 20.3515 14.5636 20.6809 15.0558L20.6809 15.0559L20.6809 15.0559C21.2777 15.9478 22.0882 17.1591 22.5614 17.9909C22.0461 17.9855 21.5112 17.9414 20.9709 17.8968C20.3818 17.8482 19.7864 17.7991 19.2032 17.7991C18.9417 17.7991 18.682 17.8011 18.4243 17.803H18.4243C17.4032 17.8107 16.4126 17.8181 15.4528 17.703C14.4431 17.6068 13.4814 17.5587 12.4717 17.5587C11.6131 17.5587 10.9753 17.5342 10.6108 17.5202H10.6108L10.6106 17.5202C10.4649 17.5146 10.3629 17.5106 10.308 17.5106C9.77905 17.5106 9.25015 17.5587 8.72124 17.6549C8.63244 17.7733 8.5072 17.837 8.37917 17.9022C8.29922 17.9429 8.21818 17.9841 8.14425 18.0395C8.09616 18.1357 8.04808 18.328 8 18.5684C8 18.7127 8.09616 18.905 8.24041 19.0974C8.19233 19.4339 8.14425 19.8186 8.14425 20.1552C8.14425 20.5879 8.19233 21.0687 8.43274 21.5015C8.43274 21.7579 8.41137 21.9075 8.39713 22.0072C8.39 22.0571 8.38466 22.0945 8.38466 22.1266C8.38466 22.2227 8.38466 22.367 8.43274 22.5112C8.80626 22.5112 9.14109 22.5241 9.46394 22.5366C9.7645 22.5481 10.0547 22.5593 10.356 22.5593C10.6816 22.5593 10.9811 22.5332 11.2681 22.5082C11.5321 22.4852 11.7855 22.4631 12.0389 22.4631C12.9525 22.4631 13.9142 22.4631 15.2605 22.6074C15.9135 22.6074 16.5867 22.6476 17.2799 22.689C17.6586 22.7117 18.0433 22.7347 18.4339 22.7516L18.5507 22.7518C18.1654 23.0711 17.7648 23.376 17.3627 23.6818L17.3627 23.6819L17.3627 23.6819C16.3767 24.432 15.3824 25.1884 14.5877 26.1804C14.4395 26.224 14.3063 26.2863 14.1872 26.364C13.6191 26.3321 13.0534 26.3162 12.4717 26.3162C11.6131 26.3162 10.9752 26.2916 10.6108 26.2776C10.465 26.272 10.3629 26.2681 10.308 26.2681C9.77905 26.2681 9.25015 26.3162 8.72124 26.4123C8.63244 26.5307 8.5072 26.5945 8.37917 26.6596C8.29922 26.7003 8.21818 26.7415 8.14425 26.797C8.09616 26.8932 8.04808 27.0855 8 27.3259C8 27.4702 8.09616 27.6625 8.24041 27.8548C8.19233 28.1914 8.14425 28.5761 8.14425 28.9126C8.14425 29.3454 8.19233 29.8262 8.43274 30.2589C8.43274 30.5154 8.41137 30.665 8.39713 30.7647C8.39 30.8146 8.38466 30.852 8.38466 30.884C8.38466 30.9802 8.38466 31.1244 8.43274 31.2687C8.80626 31.2687 9.14109 31.2816 9.46394 31.294C9.7645 31.3056 10.0547 31.3168 10.356 31.3168C10.6816 31.3168 10.9811 31.2907 11.2681 31.2657C11.5321 31.2427 11.7855 31.2206 12.0389 31.2206C12.4883 31.2206 12.9494 31.2206 13.4621 31.2378C13.5376 31.3713 13.6174 31.5136 13.6971 31.6787C13.823 31.9424 13.8867 32.2233 13.9484 32.4959C14.0321 32.8658 14.1124 33.2203 14.3403 33.4956C14.4055 33.5796 14.4898 33.6451 14.5764 33.7125C14.6869 33.7985 14.8013 33.8874 14.8846 34.0215C15.0206 34.2581 15.1267 34.567 15.2358 34.8846L15.2358 34.8846C15.3251 35.1446 15.4164 35.4104 15.5278 35.6471C15.6514 35.91 15.7751 36.161 15.8988 36.4119L15.8988 36.4121C16.0225 36.6631 16.1462 36.9141 16.2699 37.177C16.3094 37.2661 16.3349 37.3687 16.3613 37.4749C16.4341 37.7679 16.5137 38.0885 16.9131 38.2289C17.0863 38.8026 17.3337 39.3525 17.5811 39.9023C17.8284 40.4521 18.0758 41.002 18.249 41.5757C18.4868 41.6523 18.7961 41.821 19.1164 41.9957C19.5957 42.257 20.0998 42.5319 20.426 42.5319C20.5411 42.5319 20.6227 42.4511 20.7195 42.3552C20.7892 42.2862 20.8667 42.2095 20.9702 42.1494C21.0661 42.0877 21.2033 42.1256 21.3284 42.1603C21.397 42.1792 21.4619 42.1972 21.5145 42.1972C21.7331 42.1972 21.8531 42.0639 21.9742 41.9295C22.0449 41.8509 22.1159 41.772 22.2072 41.7191C22.2731 41.7351 22.3391 41.7563 22.4051 41.7776C22.537 41.8201 22.669 41.8626 22.8009 41.8626C23.0652 41.8626 23.1377 41.7615 23.2255 41.6394C23.2856 41.5557 23.3528 41.4622 23.4936 41.3844C24.0055 41.1062 24.1657 40.8879 24.2819 40.7296C24.3453 40.6431 24.3957 40.5745 24.4831 40.5238C24.1527 39.2823 23.5773 38.1724 22.9991 37.0573C22.798 36.6695 22.5966 36.281 22.4051 35.8861C22.2947 35.5928 22.1381 35.344 21.9783 35.0901C21.8516 34.8889 21.7228 34.6844 21.6134 34.4518C21.5303 34.2821 21.4212 34.0707 21.2988 33.8335C20.9489 33.1555 20.4902 32.2665 20.2165 31.5377C20.7827 31.5534 21.3724 31.5738 21.9816 31.5949C22.0807 31.5984 22.1804 31.6018 22.2805 31.6053C28.631 31.7976 30.0255 31.7976 31.3718 31.7976H31.3718C31.6843 31.7976 31.9413 31.8135 32.1942 31.8291C32.5641 31.8519 32.9254 31.8742 33.4394 31.8457C33.512 31.6762 33.5237 31.5068 33.5358 31.3312C33.5477 31.158 33.5601 30.9788 33.6317 30.7879C33.5355 30.6917 33.4874 30.5955 33.4874 30.4032C33.4874 30.3833 33.4957 30.3551 33.5054 30.3221C33.519 30.2754 33.5355 30.2191 33.5355 30.1628L33.6798 29.3454C33.6317 29.2492 33.6317 29.0569 33.6798 28.7684C33.6798 28.7203 33.6798 28.6722 33.7279 28.6241C33.7279 28.6194 33.7283 28.6147 33.7288 28.6094C33.7336 28.561 33.7429 28.4666 33.4394 27.9029C33.4394 27.7621 33.4136 27.5698 33.3809 27.3259C33.369 27.2366 33.3561 27.1405 33.3432 27.0374C31.4921 26.8523 29.6855 26.7563 23.419 26.7493C24.795 25.5236 26.2143 24.3312 27.6497 23.2161C27.7211 23.1609 27.7843 23.0858 27.8428 22.9987C29.7407 23.0401 30.5649 23.0401 31.3718 23.0401H31.3718C31.6843 23.0401 31.9413 23.056 32.1942 23.0716H32.1943C32.5641 23.0945 32.9254 23.1168 33.4394 23.0882C33.512 22.9188 33.5237 22.7493 33.5358 22.5737C33.5477 22.4005 33.5601 22.2214 33.6317 22.0304C33.5355 21.9342 33.4874 21.8381 33.4874 21.6457C33.4874 21.6258 33.4957 21.5977 33.5054 21.5647C33.519 21.518 33.5355 21.4617 33.5355 21.4053L33.6798 20.5879C33.6317 20.4918 33.6317 20.2994 33.6798 20.0109C33.6798 19.9628 33.6798 19.9148 33.7279 19.8667C33.7279 19.862 33.7283 19.8572 33.7288 19.852C33.7336 19.8036 33.7429 19.7091 33.4394 19.1454C33.4394 19.0046 33.4136 18.8123 33.3809 18.5684L33.3809 18.5684C33.369 18.4792 33.3561 18.383 33.3432 18.28Z" fill="#EDEDED"/>
<path fill-rule="evenodd" clip-rule="evenodd" d="M33.3432 18.28C32.3075 18.1764 31.2857 18.1007 29.4888 18.0529C28.5511 15.8867 27.2346 13.7683 25.918 11.7892C25.8807 11.7082 25.8469 11.6306 25.8144 11.5557C25.674 11.2329 25.5559 10.9612 25.2748 10.6896C24.2852 9.73332 23.741 8.92053 23.3946 7.62962C23.2957 7.05589 22.5535 5 21.8114 5C21.5689 5 21.1325 5.16399 20.7398 5.31159L20.7398 5.31159C20.5715 5.37484 20.4112 5.43508 20.2776 5.47811C19.8817 5.62155 19.4365 5.71717 19.0406 5.71717C18.9273 5.71717 18.814 5.66702 18.6912 5.61265C18.5459 5.54833 18.3872 5.47811 18.1995 5.47811C17.9021 5.47811 17.649 5.54951 17.3918 5.62207C17.1783 5.68229 16.962 5.7433 16.7152 5.76498C16.4678 6.19528 16.3689 6.6734 16.3689 7.19932C16.3689 8.15555 16.7647 9.39864 17.6058 9.97238C18.112 11.0731 18.5823 11.7219 19.0473 12.3634L19.0473 12.3634C19.1277 12.4743 19.2078 12.5849 19.288 12.6976C19.3276 12.7837 19.3652 12.8697 19.4028 12.9558C19.5532 13.3 19.7036 13.6443 19.9807 13.9885C20.0872 14.1687 20.3515 14.5636 20.6809 15.0558L20.6809 15.0559L20.6809 15.0559C21.2777 15.9478 22.0882 17.1591 22.5614 17.9909C22.0461 17.9855 21.5112 17.9414 20.9709 17.8968C20.3818 17.8482 19.7864 17.7991 19.2032 17.7991C18.9417 17.7991 18.682 17.8011 18.4243 17.803H18.4243C17.4032 17.8107 16.4126 17.8181 15.4528 17.703C14.4431 17.6068 13.4814 17.5587 12.4717 17.5587C11.6131 17.5587 10.9753 17.5342 10.6108 17.5202H10.6108L10.6106 17.5202C10.4649 17.5146 10.3629 17.5106 10.308 17.5106C9.77905 17.5106 9.25015 17.5587 8.72124 17.6549C8.63244 17.7733 8.5072 17.837 8.37917 17.9022C8.29922 17.9429 8.21818 17.9841 8.14425 18.0395C8.09616 18.1357 8.04808 18.328 8 18.5684C8 18.7127 8.09616 18.905 8.24041 19.0974C8.19233 19.4339 8.14425 19.8186 8.14425 20.1552C8.14425 20.5879 8.19233 21.0687 8.43274 21.5015C8.43274 21.7579 8.41137 21.9075 8.39713 22.0072C8.39 22.0571 8.38466 22.0945 8.38466 22.1266C8.38466 22.2227 8.38466 22.367 8.43274 22.5112C8.80626 22.5112 9.14109 22.5241 9.46394 22.5366C9.7645 22.5481 10.0547 22.5593 10.356 22.5593C10.6816 22.5593 10.9811 22.5332 11.2681 22.5082C11.5321 22.4852 11.7855 22.4631 12.0389 22.4631C12.9525 22.4631 13.9142 22.4631 15.2605 22.6074C15.9135 22.6074 16.5867 22.6476 17.2799 22.689C17.6586 22.7117 18.0433 22.7347 18.4339 22.7516L18.5507 22.7518C18.1654 23.0711 17.7648 23.376 17.3627 23.6818L17.3627 23.6819L17.3627 23.6819C16.3767 24.432 15.3824 25.1884 14.5877 26.1804C14.4395 26.224 14.3063 26.2863 14.1872 26.364C13.6191 26.3321 13.0534 26.3162 12.4717 26.3162C11.6131 26.3162 10.9752 26.2916 10.6108 26.2776C10.465 26.272 10.3629 26.2681 10.308 26.2681C9.77905 26.2681 9.25015 26.3162 8.72124 26.4123C8.63244 26.5307 8.5072 26.5945 8.37917 26.6596C8.29922 26.7003 8.21818 26.7415 8.14425 26.797C8.09616 26.8932 8.04808 27.0855 8 27.3259C8 27.4702 8.09616 27.6625 8.24041 27.8548C8.19233 28.1914 8.14425 28.5761 8.14425 28.9126C8.14425 29.3454 8.19233 29.8262 8.43274 30.2589C8.43274 30.5154 8.41137 30.665 8.39713 30.7647C8.39 30.8146 8.38466 30.852 8.38466 30.884C8.38466 30.9802 8.38466 31.1244 8.43274 31.2687C8.80626 31.2687 9.14109 31.2816 9.46394 31.294C9.7645 31.3056 10.0547 31.3168 10.356 31.3168C10.6816 31.3168 10.9811 31.2907 11.2681 31.2657C11.5321 31.2427 11.7855 31.2206 12.0389 31.2206C12.4883 31.2206 12.9494 31.2206 13.4621 31.2378C13.5376 31.3713 13.6174 31.5136 13.6971 31.6787C13.823 31.9424 13.8867 32.2233 13.9484 32.4959C14.0321 32.8658 14.1124 33.2203 14.3403 33.4956C14.4055 33.5796 14.4898 33.6451 14.5764 33.7125C14.6869 33.7985 14.8013 33.8874 14.8846 34.0215C15.0206 34.2581 15.1267 34.567 15.2358 34.8846L15.2358 34.8846C15.3251 35.1446 15.4164 35.4104 15.5278 35.6471C15.6514 35.91 15.7751 36.161 15.8988 36.4119L15.8988 36.4121C16.0225 36.6631 16.1462 36.9141 16.2699 37.177C16.3094 37.2661 16.3349 37.3687 16.3613 37.4749C16.4341 37.7679 16.5137 38.0885 16.9131 38.2289C17.0863 38.8026 17.3337 39.3525 17.5811 39.9023C17.8284 40.4521 18.0758 41.002 18.249 41.5757C18.4868 41.6523 18.7961 41.821 19.1164 41.9957C19.5957 42.257 20.0998 42.5319 20.426 42.5319C20.5411 42.5319 20.6227 42.4511 20.7195 42.3552C20.7892 42.2862 20.8667 42.2095 20.9702 42.1494C21.0661 42.0877 21.2033 42.1256 21.3284 42.1603C21.397 42.1792 21.4619 42.1972 21.5145 42.1972C21.7331 42.1972 21.8531 42.0639 21.9742 41.9295C22.0449 41.8509 22.1159 41.772 22.2072 41.7191C22.2731 41.7351 22.3391 41.7563 22.4051 41.7776C22.537 41.8201 22.669 41.8626 22.8009 41.8626C23.0652 41.8626 23.1377 41.7615 23.2255 41.6394C23.2856 41.5557 23.3528 41.4622 23.4936 41.3844C24.0055 41.1062 24.1657 40.8879 24.2819 40.7296C24.3453 40.6431 24.3957 40.5745 24.4831 40.5238C24.1527 39.2823 23.5773 38.1724 22.9991 37.0573C22.798 36.6695 22.5966 36.281 22.4051 35.8861C22.2947 35.5928 22.1381 35.344 21.9783 35.0901C21.8516 34.8889 21.7228 34.6844 21.6134 34.4518C21.5303 34.2821 21.4212 34.0707 21.2988 33.8335C20.9489 33.1555 20.4902 32.2665 20.2165 31.5377C20.7827 31.5534 21.3724 31.5738 21.9816 31.5949C22.0807 31.5984 22.1804 31.6018 22.2805 31.6053C28.631 31.7976 30.0255 31.7976 31.3718 31.7976H31.3718C31.6843 31.7976 31.9413 31.8135 32.1942 31.8291C32.5641 31.8519 32.9254 31.8742 33.4394 31.8457C33.512 31.6762 33.5237 31.5068 33.5358 31.3312C33.5477 31.158 33.5601 30.9788 33.6317 30.7879C33.5355 30.6917 33.4874 30.5955 33.4874 30.4032C33.4874 30.3833 33.4957 30.3551 33.5054 30.3221C33.519 30.2754 33.5355 30.2191 33.5355 30.1628L33.6798 29.3454C33.6317 29.2492 33.6317 29.0569 33.6798 28.7684C33.6798 28.7203 33.6798 28.6722 33.7279 28.6241C33.7279 28.6194 33.7283 28.6147 33.7288 28.6094C33.7336 28.561 33.7429 28.4666 33.4394 27.9029C33.4394 27.7621 33.4136 27.5698 33.3809 27.3259C33.369 27.2366 33.3561 27.1405 33.3432 27.0374C31.4921 26.8523 29.6855 26.7563 23.419 26.7493C24.795 25.5236 26.2143 24.3312 27.6497 23.2161C27.7211 23.1609 27.7843 23.0858 27.8428 22.9987C29.7407 23.0401 30.5649 23.0401 31.3718 23.0401H31.3718C31.6843 23.0401 31.9413 23.056 32.1942 23.0716H32.1943C32.5641 23.0945 32.9254 23.1168 33.4394 23.0882C33.512 22.9188 33.5237 22.7493 33.5358 22.5737C33.5477 22.4005 33.5601 22.2214 33.6317 22.0304C33.5355 21.9342 33.4874 21.8381 33.4874 21.6457C33.4874 21.6258 33.4957 21.5977 33.5054 21.5647C33.519 21.518 33.5355 21.4617 33.5355 21.4053L33.6798 20.5879C33.6317 20.4918 33.6317 20.2994 33.6798 20.0109C33.6798 19.9628 33.6798 19.9148 33.7279 19.8667C33.7279 19.862 33.7283 19.8572 33.7288 19.852C33.7336 19.8036 33.7429 19.7091 33.4394 19.1454C33.4394 19.0046 33.4136 18.8123 33.3809 18.5684L33.3809 18.5684C33.369 18.4792 33.3561 18.383 33.3432 18.28Z" fill="url(#paint1_linear_92_263)"/>
</g>
<defs>
<filter id="filter0_d_92_263" x="0.972181" y="0.783309" width="39.7859" height="56.0556" filterUnits="userSpaceOnUse" color-interpolation-filters="sRGB">
<feFlood flood-opacity="0" result="BackgroundImageFix"/>
<feColorMatrix in="SourceAlpha" type="matrix" values="0 0 0 0 0 0 0 0 0 0 0 0 0 0 0 0 0 0 127 0" result="hardAlpha"/>
<feOffset dy="2.81113"/>
<feGaussianBlur stdDeviation="3.51391"/>
<feComposite in2="hardAlpha" operator="out"/>
<feColorMatrix type="matrix" values="0 0 0 0 0 0 0 0 0 0 0 0 0 0 0 0 0 0 0.3 0"/>
<feBlend mode="normal" in2="BackgroundImageFix" result="effect1_dropShadow_92_263"/>
<feBlend mode="normal" in="SourceGraphic" in2="effect1_dropShadow_92_263" result="shape"/>
</filter>
<linearGradient id="paint0_linear_92_263" x1="23.2013" y1="22.6042" x2="23.2013" y2="36.3659" gradientUnits="userSpaceOnUse">
<stop stop-color="#4E1802"/>
<stop offset="0.640625" stop-color="#4E1C00"/>
<stop offset="1" stop-color="#EF631A"/>
</linearGradient>
<linearGradient id="paint1_linear_92_263" x1="23.2013" y1="18.1362" x2="23.2013" y2="31.8979" gradientUnits="userSpaceOnUse">
<stop stop-color="#FFF325"/>
<stop offset="0.640625" stop-color="#F89E0A"/>
<stop offset="1" stop-color="#FFF325"/>
</linearGradient>
</defs>
</svg>
