<?xml version="1.0" encoding="UTF-8" standalone="no"?>
<!DOCTYPE svg PUBLIC "-//W3C//DTD SVG 1.1//EN" "http://www.w3.org/Graphics/SVG/1.1/DTD/svg11.dtd">
<svg width="100%" height="100%" viewBox="0 0 535 176" version="1.1" xmlns="http://www.w3.org/2000/svg" xmlns:xlink="http://www.w3.org/1999/xlink" xml:space="preserve" xmlns:serif="http://www.serif.com/" style="fill-rule:evenodd;clip-rule:evenodd;stroke-linejoin:round;stroke-miterlimit:2;">
    <g transform="matrix(1,0,0,1,-169,-1751)">
        <g transform="matrix(0.768,0,0,0.850394,0,-938.48)">
            <g id="fav_online_casino" transform="matrix(0.959011,0,0,0.866094,-1289.36,1413.15)">
                <g transform="matrix(2.70253,0,0,3.09015,-3221.63,-3105.92)">
                    <g>
                        <g id="Final_logo" transform="matrix(1.19285,0,0,1.04322,1774.56,1658.91)">
                            <rect x="0" y="0" width="224.87" height="40" style="fill:rgb(255,38,126);"/>
                            <path d="M72.75,19.26L59.35,19.26L59.35,15.37L75.56,15.37L75.56,10L51.58,10L51.58,30L59.35,30L59.35,24.63L72.75,24.63L72.75,19.26Z" style="fill:rgb(0,0,85);fill-rule:nonzero;"/>
                            <path d="M115.34,23.32L108.23,10L99.31,10L110.86,30L119.71,30L131.25,10L122.46,10L115.34,23.32Z" style="fill:rgb(0,0,85);fill-rule:nonzero;"/>
                            <path d="M156.16,19.84C157.937,19.151 159.127,17.446 159.16,15.54C159.16,12.26 156.39,10 150.94,10L133.35,10L133.35,30L151.35,30C157.2,30 159.8,27.69 159.8,24.34C159.76,22.47 158.63,20.78 156.16,19.84ZM140.92,14.84L149.59,14.84C149.689,14.82 149.79,14.81 149.891,14.81C150.731,14.81 151.421,15.501 151.421,16.34C151.421,17.179 150.731,17.87 149.891,17.87C149.79,17.87 149.689,17.86 149.59,17.84L140.92,17.84L140.92,14.84ZM150.22,25.24L140.92,25.24L140.92,22.24L150.22,22.24C150.319,22.22 150.42,22.21 150.521,22.21C151.361,22.21 152.051,22.901 152.051,23.74C152.051,24.579 151.361,25.27 150.521,25.27C150.42,25.27 150.319,25.26 150.22,25.24Z" style="fill:rgb(0,0,85);fill-rule:nonzero;"/>
                            <path d="M171.22,22.17L184.6,22.17L184.6,17.83L171.22,17.83L171.22,15.37L186.01,15.37L186.01,10L163.45,10L163.45,30L186.36,30L186.36,24.63L171.22,24.63L171.22,22.17Z" style="fill:rgb(0,0,85);fill-rule:nonzero;"/>
                            <path d="M189.57,10L189.57,15.37L198.29,15.37L198.29,30L206.15,30L206.15,15.37L214.86,15.37L214.86,10L189.57,10Z" style="fill:rgb(0,0,85);fill-rule:nonzero;"/>
                            <path d="M84.59,10L73.05,30L81.31,30L82.87,27.05L95.21,27.05L96.77,30L105.37,30L93.82,10L84.59,10ZM85.59,21.86L89,15.42L92.41,21.86L85.59,21.86Z" style="fill:rgb(0,0,85);fill-rule:nonzero;"/>
                            <path d="M10.06,17.84L16.95,30L25.8,30L18.9,17.84L10.06,17.84Z" style="fill:rgb(0,0,85);fill-rule:nonzero;"/>
                            <path d="M32.69,17.84L25.8,30L34.64,30L41.53,17.84L32.69,17.84Z" style="fill:rgb(0,0,85);fill-rule:nonzero;"/>
                            <path d="M25.8,5.71L18.9,17.84L32.69,17.84L25.8,5.71Z" style="fill:rgb(0,0,85);fill-rule:nonzero;"/>
                        </g>
                        <g transform="matrix(0.804746,0,0,0.12757,-4776.87,1662.24)">
                            <rect x="8142" y="301" width="271" height="271" style="fill:rgb(0,0,85);"/>
                        </g>
                        <g transform="matrix(0.652708,0,-5.43416e-33,0.56579,1542.96,1638.84)">
                            <g transform="matrix(33.6213,0,0,33.6213,372.614,151.967)">
                                <path d="M0.184,-0.363C0.184,-0.32 0.19,-0.283 0.201,-0.25C0.212,-0.217 0.226,-0.19 0.245,-0.168C0.264,-0.146 0.286,-0.129 0.311,-0.118C0.336,-0.107 0.363,-0.101 0.391,-0.101C0.419,-0.101 0.446,-0.107 0.471,-0.118C0.496,-0.129 0.518,-0.146 0.537,-0.168C0.556,-0.19 0.571,-0.217 0.582,-0.25C0.592,-0.283 0.598,-0.32 0.598,-0.363C0.598,-0.406 0.592,-0.443 0.582,-0.476C0.571,-0.508 0.556,-0.535 0.537,-0.557C0.518,-0.579 0.496,-0.596 0.471,-0.607C0.446,-0.618 0.419,-0.624 0.391,-0.624C0.363,-0.624 0.336,-0.618 0.311,-0.607C0.286,-0.596 0.264,-0.579 0.245,-0.557C0.226,-0.535 0.212,-0.508 0.201,-0.476C0.19,-0.443 0.184,-0.406 0.184,-0.363ZM0.746,-0.363C0.746,-0.307 0.738,-0.256 0.721,-0.21C0.704,-0.163 0.681,-0.124 0.65,-0.091C0.618,-0.057 0.581,-0.032 0.538,-0.014C0.494,0.004 0.445,0.013 0.391,0.013C0.337,0.013 0.288,0.004 0.245,-0.014C0.201,-0.032 0.164,-0.057 0.133,-0.091C0.101,-0.124 0.078,-0.163 0.061,-0.21C0.044,-0.256 0.036,-0.307 0.036,-0.363C0.036,-0.419 0.044,-0.47 0.061,-0.517C0.078,-0.563 0.101,-0.602 0.133,-0.635C0.164,-0.668 0.201,-0.693 0.245,-0.711C0.288,-0.729 0.337,-0.738 0.391,-0.738C0.445,-0.738 0.494,-0.729 0.538,-0.711C0.581,-0.693 0.618,-0.668 0.65,-0.635C0.681,-0.602 0.704,-0.563 0.721,-0.517C0.738,-0.47 0.746,-0.419 0.746,-0.363Z" style="fill:rgb(255,38,126);fill-rule:nonzero;"/>
                            </g>
                            <g transform="matrix(33.6213,0,0,33.6213,402.268,151.967)">
                                <path d="M0.49,-0L0.2,-0.553L0.2,-0L0.065,-0L0.065,-0.725L0.251,-0.725L0.541,-0.172L0.541,-0.725L0.676,-0.725L0.676,-0L0.49,-0Z" style="fill:rgb(255,38,126);fill-rule:nonzero;"/>
                            </g>
                            <g transform="matrix(33.6213,0,0,33.6213,430.544,151.967)">
                                <path d="M0.208,-0.116L0.561,-0.116L0.561,-0L0.065,-0L0.065,-0.725L0.208,-0.725L0.208,-0.116Z" style="fill:rgb(255,38,126);fill-rule:nonzero;"/>
                            </g>
                            <g transform="matrix(33.6213,0,0,33.6213,452.767,151.967)">
                                <rect x="0.065" y="-0.725" width="0.143" height="0.725" style="fill:rgb(255,38,126);fill-rule:nonzero;"/>
                            </g>
                            <g transform="matrix(33.6213,0,0,33.6213,465.308,151.967)">
                                <path d="M0.49,-0L0.2,-0.553L0.2,-0L0.065,-0L0.065,-0.725L0.251,-0.725L0.541,-0.172L0.541,-0.725L0.676,-0.725L0.676,-0L0.49,-0Z" style="fill:rgb(255,38,126);fill-rule:nonzero;"/>
                            </g>
                            <g transform="matrix(33.6213,0,0,33.6213,493.584,151.967)">
                                <path d="M0.065,-0.725L0.593,-0.725L0.593,-0.609L0.208,-0.609L0.208,-0.429L0.572,-0.429L0.572,-0.313L0.208,-0.313L0.208,-0.116L0.593,-0.116L0.593,-0L0.065,-0L0.065,-0.725Z" style="fill:rgb(255,38,126);fill-rule:nonzero;"/>
                            </g>
                            <g transform="matrix(33.6213,0,0,33.6213,528.651,151.967)">
                                <path d="M0.693,-0.238C0.688,-0.201 0.678,-0.168 0.661,-0.137C0.644,-0.106 0.621,-0.08 0.594,-0.058C0.567,-0.035 0.535,-0.018 0.499,-0.006C0.462,0.007 0.422,0.013 0.379,0.013C0.325,0.013 0.277,0.004 0.235,-0.014C0.193,-0.031 0.158,-0.056 0.129,-0.09C0.099,-0.123 0.078,-0.162 0.063,-0.209C0.048,-0.256 0.04,-0.308 0.04,-0.366C0.04,-0.423 0.048,-0.475 0.064,-0.521C0.08,-0.567 0.103,-0.606 0.133,-0.638C0.162,-0.67 0.198,-0.695 0.241,-0.712C0.283,-0.729 0.33,-0.738 0.383,-0.738C0.426,-0.738 0.465,-0.732 0.5,-0.721C0.535,-0.709 0.566,-0.692 0.593,-0.671C0.62,-0.649 0.642,-0.623 0.659,-0.593C0.676,-0.562 0.687,-0.528 0.693,-0.49L0.557,-0.49C0.55,-0.515 0.541,-0.537 0.53,-0.554C0.518,-0.571 0.505,-0.584 0.49,-0.595C0.474,-0.606 0.458,-0.613 0.44,-0.618C0.421,-0.622 0.402,-0.624 0.382,-0.624C0.355,-0.624 0.329,-0.619 0.306,-0.608C0.282,-0.596 0.261,-0.58 0.244,-0.558C0.227,-0.536 0.213,-0.509 0.203,-0.477C0.193,-0.445 0.188,-0.408 0.188,-0.366C0.188,-0.323 0.193,-0.284 0.203,-0.252C0.213,-0.219 0.227,-0.191 0.244,-0.169C0.261,-0.146 0.281,-0.129 0.304,-0.118C0.327,-0.107 0.351,-0.101 0.377,-0.101C0.398,-0.101 0.419,-0.103 0.438,-0.109C0.457,-0.114 0.475,-0.122 0.491,-0.133C0.506,-0.143 0.52,-0.158 0.531,-0.175C0.542,-0.192 0.551,-0.213 0.557,-0.238L0.693,-0.238Z" style="fill:rgb(255,38,126);fill-rule:nonzero;"/>
                            </g>
                            <g transform="matrix(33.6213,0,0,33.6213,555.417,151.967)">
                                <path d="M0.27,-0.725L0.414,-0.725L0.685,-0L0.53,-0L0.479,-0.147L0.197,-0.147L0.146,-0L0,-0L0.27,-0.725ZM0.238,-0.264L0.438,-0.264L0.338,-0.55L0.238,-0.264Z" style="fill:rgb(255,38,126);fill-rule:nonzero;"/>
                            </g>
                            <g transform="matrix(33.6213,0,0,33.6213,581.04,151.967)">
                                <path d="M0.258,-0.318C0.229,-0.324 0.201,-0.332 0.175,-0.343C0.148,-0.354 0.125,-0.368 0.106,-0.385C0.086,-0.402 0.07,-0.422 0.059,-0.446C0.047,-0.469 0.041,-0.497 0.041,-0.528C0.041,-0.565 0.05,-0.596 0.068,-0.623C0.085,-0.649 0.108,-0.671 0.136,-0.688C0.163,-0.705 0.194,-0.717 0.229,-0.726C0.263,-0.734 0.297,-0.738 0.33,-0.738C0.367,-0.738 0.403,-0.733 0.437,-0.722C0.47,-0.711 0.5,-0.696 0.526,-0.677C0.552,-0.657 0.573,-0.633 0.589,-0.605C0.604,-0.577 0.613,-0.546 0.615,-0.511L0.477,-0.511C0.474,-0.532 0.468,-0.55 0.458,-0.565C0.448,-0.579 0.436,-0.591 0.422,-0.6C0.408,-0.608 0.392,-0.615 0.375,-0.619C0.358,-0.622 0.341,-0.624 0.324,-0.624C0.307,-0.624 0.291,-0.622 0.274,-0.619C0.257,-0.616 0.242,-0.611 0.229,-0.604C0.216,-0.596 0.205,-0.587 0.197,-0.576C0.188,-0.564 0.184,-0.55 0.184,-0.534C0.184,-0.509 0.194,-0.489 0.213,-0.474C0.232,-0.459 0.256,-0.449 0.285,-0.444L0.38,-0.427C0.409,-0.422 0.439,-0.414 0.469,-0.405C0.498,-0.396 0.525,-0.383 0.549,-0.367C0.572,-0.35 0.591,-0.329 0.606,-0.304C0.621,-0.278 0.628,-0.246 0.628,-0.209C0.628,-0.172 0.62,-0.139 0.603,-0.112C0.586,-0.084 0.563,-0.061 0.536,-0.042C0.508,-0.023 0.476,-0.01 0.442,-0.001C0.407,0.009 0.371,0.013 0.334,0.013C0.289,0.013 0.249,0.007 0.213,-0.005C0.176,-0.016 0.145,-0.033 0.118,-0.055C0.091,-0.076 0.07,-0.102 0.054,-0.134C0.038,-0.165 0.028,-0.2 0.025,-0.239L0.163,-0.239C0.167,-0.212 0.174,-0.19 0.185,-0.173C0.196,-0.155 0.209,-0.141 0.225,-0.13C0.24,-0.119 0.258,-0.112 0.278,-0.108C0.297,-0.103 0.318,-0.101 0.339,-0.101C0.355,-0.101 0.372,-0.103 0.389,-0.106C0.406,-0.109 0.421,-0.115 0.436,-0.123C0.45,-0.13 0.462,-0.14 0.471,-0.154C0.48,-0.167 0.484,-0.183 0.484,-0.202C0.484,-0.217 0.481,-0.231 0.474,-0.242C0.467,-0.253 0.458,-0.262 0.446,-0.27C0.434,-0.277 0.42,-0.284 0.404,-0.289C0.387,-0.294 0.369,-0.298 0.35,-0.301L0.258,-0.318Z" style="fill:rgb(255,38,126);fill-rule:nonzero;"/>
                            </g>
                            <g transform="matrix(33.6213,0,0,33.6213,606.289,151.967)">
                                <rect x="0.065" y="-0.725" width="0.143" height="0.725" style="fill:rgb(255,38,126);fill-rule:nonzero;"/>
                            </g>
                            <g transform="matrix(33.6213,0,0,33.6213,618.83,151.967)">
                                <path d="M0.49,-0L0.2,-0.553L0.2,-0L0.065,-0L0.065,-0.725L0.251,-0.725L0.541,-0.172L0.541,-0.725L0.676,-0.725L0.676,-0L0.49,-0Z" style="fill:rgb(255,38,126);fill-rule:nonzero;"/>
                            </g>
                            <g transform="matrix(33.6213,0,0,33.6213,647.106,151.967)">
                                <path d="M0.184,-0.363C0.184,-0.32 0.19,-0.283 0.201,-0.25C0.212,-0.217 0.226,-0.19 0.245,-0.168C0.264,-0.146 0.286,-0.129 0.311,-0.118C0.336,-0.107 0.363,-0.101 0.391,-0.101C0.419,-0.101 0.446,-0.107 0.471,-0.118C0.496,-0.129 0.518,-0.146 0.537,-0.168C0.556,-0.19 0.571,-0.217 0.582,-0.25C0.592,-0.283 0.598,-0.32 0.598,-0.363C0.598,-0.406 0.592,-0.443 0.582,-0.476C0.571,-0.508 0.556,-0.535 0.537,-0.557C0.518,-0.579 0.496,-0.596 0.471,-0.607C0.446,-0.618 0.419,-0.624 0.391,-0.624C0.363,-0.624 0.336,-0.618 0.311,-0.607C0.286,-0.596 0.264,-0.579 0.245,-0.557C0.226,-0.535 0.212,-0.508 0.201,-0.476C0.19,-0.443 0.184,-0.406 0.184,-0.363ZM0.746,-0.363C0.746,-0.307 0.738,-0.256 0.721,-0.21C0.704,-0.163 0.681,-0.124 0.65,-0.091C0.618,-0.057 0.581,-0.032 0.538,-0.014C0.494,0.004 0.445,0.013 0.391,0.013C0.337,0.013 0.288,0.004 0.245,-0.014C0.201,-0.032 0.164,-0.057 0.133,-0.091C0.101,-0.124 0.078,-0.163 0.061,-0.21C0.044,-0.256 0.036,-0.307 0.036,-0.363C0.036,-0.419 0.044,-0.47 0.061,-0.517C0.078,-0.563 0.101,-0.602 0.133,-0.635C0.164,-0.668 0.201,-0.693 0.245,-0.711C0.288,-0.729 0.337,-0.738 0.391,-0.738C0.445,-0.738 0.494,-0.729 0.538,-0.711C0.581,-0.693 0.618,-0.668 0.65,-0.635C0.681,-0.602 0.704,-0.563 0.721,-0.517C0.738,-0.47 0.746,-0.419 0.746,-0.363Z" style="fill:rgb(255,38,126);fill-rule:nonzero;"/>
                            </g>
                        </g>
                    </g>
                </g>
                <g transform="matrix(2.1831,0,0,0.394212,-16198.4,2030.64)">
                    <path d="M8412.89,577.073L8412.89,295.927L8141.08,295.927L8141.08,577.073L8412.89,577.073ZM8411.97,301L8142,301L8142,572L8411.97,572L8411.97,301Z" style="fill:rgb(255,38,126);"/>
                </g>
            </g>
        </g>
    </g>
</svg>
