<svg width="1871" height="115" viewBox="0 0 1871 115" fill="none" xmlns="http://www.w3.org/2000/svg">
<path d="M18.2423 16.4614H15.8663L9.44032 65.4214L2.85232 16.4614H0.476318L8.30632 72.2182L6.47032 85.6966C5.44432 93.0694 4.20232 94.3366 1.39432 94.3366V98.4838C4.85032 98.4838 7.06432 97.447 8.41432 87.5398L18.2423 16.4614Z" fill="black"/>
<path d="M35.0317 98.4838V16.4614H32.8717V63.0022C31.0897 63.6934 29.4157 64.039 27.6877 64.039C25.2037 64.039 22.8817 62.311 22.8817 51.2518V16.4614H20.7217V51.7126C20.7217 64.9606 23.9077 68.1862 27.4177 68.1862C29.1997 68.1862 30.9277 67.8406 32.8717 67.0342V98.4838H35.0317Z" fill="black"/>
<path d="M55.8314 98.4838L47.7314 16.4614H45.7874L37.5254 98.4838H39.9014L42.1694 73.831H51.1334L53.4554 98.4838H55.8314ZM50.7554 69.6838H42.6014L46.6514 25.9078L50.7554 69.6838Z" fill="black"/>
<path d="M71.8711 80.743H69.7111C69.7111 85.2358 69.2791 89.8438 67.9831 92.6086C67.2271 94.2214 66.0931 95.2582 64.5811 95.2582C63.0151 95.2582 61.7731 94.2214 60.9631 92.3782C59.2351 88.3462 58.9111 84.775 58.9111 57.4726C58.9111 30.1702 59.2351 26.599 60.9631 22.567C61.7731 20.7238 63.0151 19.687 64.5811 19.687C66.0931 19.687 67.2271 20.7238 67.9831 22.3366C69.2791 25.1014 69.7111 29.7094 69.7111 34.2022H71.8711C71.8711 28.327 71.2231 23.0278 69.6571 19.5718C68.4691 17.0374 66.8491 15.5398 64.5811 15.5398C62.4751 15.5398 60.6391 16.9222 59.4511 19.5718C57.1831 24.5254 56.7511 29.1334 56.7511 57.4726C56.7511 85.8118 57.1831 90.4198 59.4511 95.3734C60.6391 98.023 62.4751 99.4054 64.5811 99.4054C66.6331 99.4054 68.1991 98.1382 69.3331 95.9494C71.1151 92.6086 71.8711 86.9638 71.8711 80.743Z" fill="black"/>
<path d="M88.2909 20.6086V16.4614H73.2789V20.6086H79.7049V98.4838H81.8649V20.6086H88.2909Z" fill="black"/>
<path d="M106.341 76.3654C106.341 56.4358 102.345 54.247 98.5652 54.247H93.9212V16.4614H91.7612V98.4838H98.5652C102.237 98.4838 106.341 96.0646 106.341 76.3654ZM104.181 76.3654C104.181 92.1478 101.535 94.3366 98.4032 94.3366H93.9212V58.3942H98.4032C101.535 58.3942 104.181 60.583 104.181 76.3654Z" fill="black"/>
<path d="M135.058 76.2502C135.058 70.0294 134.788 63.9238 132.574 59.2006C131.764 57.5878 130.792 56.4358 129.712 55.975C130.522 55.5142 131.44 54.3622 132.25 52.6342C134.302 48.2566 134.626 43.1878 134.626 37.3126C134.626 28.6726 134.14 24.7558 132.574 21.0694C131.116 17.6134 129.388 16.4614 126.418 16.4614H120.478V98.4838H126.364C129.388 98.4838 131.224 97.2166 132.736 93.8758C134.302 90.4198 135.058 86.6182 135.058 76.2502ZM132.898 76.2502C132.898 90.6502 130.576 94.3366 126.742 94.3366H122.638V58.1638H126.742C130.576 58.1638 132.898 63.2326 132.898 76.2502ZM132.466 37.3126C132.466 49.2934 130.306 54.0166 126.742 54.0166H122.638V20.6086H126.742C130.306 20.6086 132.466 24.0646 132.466 37.3126Z" fill="black"/>
<path d="M164.093 98.4838L155.993 16.4614H154.049L145.787 98.4838H148.163L150.431 73.831H159.395L161.717 98.4838H164.093ZM159.017 69.6838H150.863L154.913 25.9078L159.017 69.6838Z" fill="black"/>
<path d="M179.952 77.5174C179.952 67.7254 179.304 64.615 178.116 61.5046C177.522 59.8918 176.658 58.5094 175.632 57.3574C176.658 56.2054 177.468 54.7078 178.062 53.095C179.142 49.8694 179.736 46.9894 179.736 37.543C179.736 30.5158 179.682 24.4102 177.468 19.5718C176.28 16.9222 174.444 15.5398 172.338 15.5398C170.07 15.5398 168.45 17.1526 167.262 19.687C165.696 23.143 165.048 28.327 165.048 34.2022H167.208C167.208 29.7094 167.64 25.1014 168.936 22.3366C169.692 20.7238 170.826 19.687 172.338 19.687C173.904 19.687 175.146 20.7238 175.956 22.567C177.576 26.3686 177.576 30.631 177.576 37.543C177.576 46.759 177.036 49.639 175.848 52.4038C174.984 54.4774 173.85 55.399 172.5 55.399H169.26V59.5462H172.5C173.85 59.5462 174.93 60.3526 175.902 62.5414C177.198 65.5366 177.792 68.5318 177.792 77.5174C177.792 84.3142 177.468 88.807 176.01 92.263C175.2 94.2214 173.904 95.2582 172.338 95.2582C170.826 95.2582 169.692 94.2214 168.936 92.6086C167.64 89.8438 167.208 85.2358 167.208 80.743H165.048C165.048 86.9638 165.804 92.6086 167.586 95.9494C168.72 98.1382 170.286 99.4054 172.338 99.4054C174.444 99.4054 176.28 98.023 177.468 95.3734C179.574 90.535 179.952 85.6966 179.952 77.5174Z" fill="black"/>
<path d="M200.035 98.4838L191.935 16.4614H189.991L181.729 98.4838H184.105L186.373 73.831H195.337L197.659 98.4838H200.035ZM194.959 69.6838H186.805L190.855 25.9078L194.959 69.6838Z" fill="black"/>
<path d="M217.081 38.5798C217.081 18.6502 213.085 16.4614 209.305 16.4614H202.501V98.4838H204.661V60.6982H209.305C212.977 60.6982 217.081 58.279 217.081 38.5798ZM214.921 38.5798C214.921 54.3622 212.275 56.551 209.143 56.551H204.661V20.6086H209.143C212.275 20.6086 214.921 22.7974 214.921 38.5798Z" fill="black"/>
<path d="M233.812 20.6086V16.4614H218.8V20.6086H225.226V98.4838H227.386V20.6086H233.812Z" fill="black"/>
<path d="M251.863 98.4838V16.4614H249.703V54.7078H239.443V16.4614H237.283V98.4838H239.443V58.855H249.703V98.4838H251.863Z" fill="black"/>
<path d="M273.358 98.4838V16.4614H271.198L260.182 85.351V16.4614H258.022V98.4838H260.182L271.198 29.5942V98.4838H273.358Z" fill="black"/>
<path d="M293.378 98.4838L286.25 55.6294L292.784 16.4614H290.408L285.062 50.791L279.77 16.4614H277.394L283.766 55.6294L276.8 98.4838H279.176L285.062 60.8134L291.002 98.4838H293.378Z" fill="black"/>
<path d="M308.162 98.4838V16.4614H306.002V98.4838H308.162Z" fill="black"/>
<path d="M326.446 20.6086V16.4614H314.296V98.4838H316.456V20.6086H326.446Z" fill="black"/>
<path d="M344.764 38.5798C344.764 18.6502 340.768 16.4614 336.988 16.4614H330.184V98.4838H332.344V60.6982H336.988C340.66 60.6982 344.764 58.279 344.764 38.5798ZM342.604 38.5798C342.604 54.3622 339.958 56.551 336.826 56.551H332.344V20.6086H336.826C339.958 20.6086 342.604 22.7974 342.604 38.5798Z" fill="black"/>
<path d="M361.655 98.4838L353.555 16.4614H351.611L343.349 98.4838H345.725L347.993 73.831H356.957L359.279 98.4838H361.655ZM356.579 69.6838H348.425L352.475 25.9078L356.579 69.6838Z" fill="black"/>
<path d="M378 98.4838L370.872 55.6294L377.406 16.4614H375.03L369.684 50.791L364.392 16.4614H362.016L368.388 55.6294L361.422 98.4838H363.798L369.684 60.8134L375.624 98.4838H378Z" fill="black"/>
<path d="M412.116 98.4838V16.4614H409.74L401.37 66.5734L393 16.4614H390.624V98.4838H392.784V28.7878L400.344 73.9462H402.288L409.956 27.175V98.4838H412.116Z" fill="black"/>
<path d="M433.175 57.4726C433.175 29.1334 432.743 24.5254 430.475 19.5718C429.287 16.9222 427.451 15.5398 425.345 15.5398C423.239 15.5398 421.403 16.9222 420.215 19.5718C417.947 24.5254 417.515 29.1334 417.515 57.4726C417.515 85.8118 417.947 90.4198 420.215 95.3734C421.403 98.023 423.239 99.4054 425.345 99.4054C427.451 99.4054 429.287 98.023 430.475 95.3734C432.743 90.4198 433.175 85.8118 433.175 57.4726ZM431.015 57.4726C431.015 84.775 430.691 88.3462 428.963 92.3782C428.153 94.2214 426.911 95.2582 425.345 95.2582C423.779 95.2582 422.537 94.2214 421.727 92.3782C419.999 88.3462 419.675 84.775 419.675 57.4726C419.675 30.1702 419.999 26.599 421.727 22.567C422.537 20.7238 423.779 19.687 425.345 19.687C426.911 19.687 428.153 20.7238 428.963 22.567C430.691 26.599 431.015 30.1702 431.015 57.4726Z" fill="black"/>
<path d="M465.56 98.4838L453.842 55.5142L464.912 16.4614H462.374L451.358 55.7446L463.184 98.4838H465.56ZM451.25 98.4838V16.4614H449.09V98.4838H451.25ZM448.982 55.7446L437.48 16.4614H434.942L446.498 55.5142L434.294 98.4838H436.67L448.982 55.7446Z" fill="black"/>
<path d="M480.871 98.4838V94.3366H470.611V59.5462H479.467V55.399H470.611V20.6086H480.871V16.4614H468.451V98.4838H480.871Z" fill="black"/>
<path d="M509.586 76.2502C509.586 70.0294 509.316 63.9238 507.102 59.2006C506.292 57.5878 505.32 56.4358 504.24 55.975C505.05 55.5142 505.968 54.3622 506.778 52.6342C508.83 48.2566 509.154 43.1878 509.154 37.3126C509.154 28.6726 508.668 24.7558 507.102 21.0694C505.644 17.6134 503.916 16.4614 500.946 16.4614H495.006V98.4838H500.892C503.916 98.4838 505.752 97.2166 507.264 93.8758C508.83 90.4198 509.586 86.6182 509.586 76.2502ZM507.426 76.2502C507.426 90.6502 505.104 94.3366 501.27 94.3366H497.166V58.1638H501.27C505.104 58.1638 507.426 63.2326 507.426 76.2502ZM506.994 37.3126C506.994 49.2934 504.834 54.0166 501.27 54.0166H497.166V20.6086H501.27C504.834 20.6086 506.994 24.0646 506.994 37.3126Z" fill="black"/>
<path d="M530.132 98.4838V16.4614H527.972L516.956 85.351V16.4614H514.796V98.4838H516.956L527.972 29.5942V98.4838H530.132Z" fill="black"/>
<path d="M553.554 98.4838L540.81 55.5142L552.636 16.4614H550.098L538.542 55.7446L550.908 98.4838H553.554ZM538.434 98.4838V16.4614H536.274V98.4838H538.434Z" fill="black"/>
<path d="M572.038 98.4838V16.4614H559.618V56.8966C559.618 92.839 556.702 94.3366 553.786 94.3366H553.408V98.4838H554.002C557.998 98.4838 561.67 95.6038 561.67 58.3942V20.6086H569.878V98.4838H572.038Z" fill="black"/>
<path d="M593.511 98.4838V16.4614H591.351L580.335 85.351V16.4614H578.175V98.4838H580.335L591.351 29.5942V98.4838H593.511Z" fill="black"/>
<path d="M616.932 98.4838L604.188 55.5142L616.014 16.4614H613.476L601.92 55.7446L614.286 98.4838H616.932ZM601.812 98.4838V16.4614H599.652V98.4838H601.812Z" fill="black"/>
<path d="M635.026 98.4838L626.926 16.4614H624.982L616.72 98.4838H619.096L621.364 73.831H630.328L632.65 98.4838H635.026ZM629.95 69.6838H621.796L625.846 25.9078L629.95 69.6838Z" fill="black"/>
<path d="M649.013 20.6086V16.4614H634.001V20.6086H640.427V98.4838H642.587V20.6086H649.013Z" fill="black"/>
<path d="M667.82 98.4838V16.4614H665.66L654.644 85.351V16.4614H652.484V98.4838H654.644L665.66 29.5942V98.4838H667.82Z" fill="black"/>
<path d="M685.312 98.4838V16.4614H683.152V98.4838H685.312Z" fill="black"/>
<path d="M703.596 20.6086V16.4614H691.446V98.4838H693.606V20.6086H703.596Z" fill="black"/>
<path d="M721.914 38.5798C721.914 18.6502 717.918 16.4614 714.138 16.4614H707.334V98.4838H709.494V60.6982H714.138C717.81 60.6982 721.914 58.279 721.914 38.5798ZM719.754 38.5798C719.754 54.3622 717.108 56.551 713.976 56.551H709.494V20.6086H713.976C717.108 20.6086 719.754 22.7974 719.754 38.5798Z" fill="black"/>
<path d="M741.764 57.4726C741.764 29.1334 741.332 24.5254 739.064 19.5718C737.876 16.9222 736.04 15.5398 733.934 15.5398C731.828 15.5398 729.992 16.9222 728.804 19.5718C726.536 24.5254 726.104 29.1334 726.104 57.4726C726.104 85.8118 726.536 90.4198 728.804 95.3734C729.992 98.023 731.828 99.4054 733.934 99.4054C736.04 99.4054 737.876 98.023 739.064 95.3734C741.332 90.4198 741.764 85.8118 741.764 57.4726ZM739.604 57.4726C739.604 84.775 739.28 88.3462 737.552 92.3782C736.742 94.2214 735.5 95.2582 733.934 95.2582C732.368 95.2582 731.126 94.2214 730.316 92.3782C728.588 88.3462 728.264 84.775 728.264 57.4726C728.264 30.1702 728.588 26.599 730.316 22.567C731.126 20.7238 732.368 19.687 733.934 19.687C735.5 19.687 736.742 20.7238 737.552 22.567C739.28 26.599 739.604 30.1702 739.604 57.4726Z" fill="black"/>
<path d="M761.758 76.2502C761.758 70.0294 761.488 63.9238 759.274 59.2006C758.464 57.5878 757.492 56.4358 756.412 55.975C757.222 55.5142 758.14 54.3622 758.95 52.6342C761.002 48.2566 761.326 43.1878 761.326 37.3126C761.326 28.6726 760.84 24.7558 759.274 21.0694C757.816 17.6134 756.088 16.4614 753.118 16.4614H747.178V98.4838H753.064C756.088 98.4838 757.924 97.2166 759.436 93.8758C761.002 90.4198 761.758 86.6182 761.758 76.2502ZM759.598 76.2502C759.598 90.6502 757.276 94.3366 753.442 94.3366H749.338V58.1638H753.442C757.276 58.1638 759.598 63.2326 759.598 76.2502ZM759.166 37.3126C759.166 49.2934 757.006 54.0166 753.442 54.0166H749.338V20.6086H753.442C757.006 20.6086 759.166 24.0646 759.166 37.3126Z" fill="black"/>
<path d="M780.535 16.4614H778.159L771.733 65.4214L765.145 16.4614H762.769L770.599 72.2182L768.763 85.6966C767.737 93.0694 766.495 94.3366 763.687 94.3366V98.4838C767.143 98.4838 769.357 97.447 770.707 87.5398L780.535 16.4614Z" fill="black"/>
<path d="M805.596 77.5174C805.596 67.7254 804.948 64.615 803.76 61.5046C803.167 59.8918 802.302 58.5094 801.276 57.3574C802.302 56.2054 803.112 54.7078 803.706 53.095C804.786 49.8694 805.38 46.9894 805.38 37.543C805.38 30.5158 805.326 24.4102 803.112 19.5718C801.924 16.9222 800.089 15.5398 797.982 15.5398C795.714 15.5398 794.094 17.1526 792.906 19.687C791.341 23.143 790.692 28.327 790.692 34.2022H792.852C792.852 29.7094 793.284 25.1014 794.58 22.3366C795.336 20.7238 796.47 19.687 797.982 19.687C799.548 19.687 800.79 20.7238 801.6 22.567C803.22 26.3686 803.22 30.631 803.22 37.543C803.22 46.759 802.68 49.639 801.492 52.4038C800.628 54.4774 799.494 55.399 798.144 55.399H794.904V59.5462H798.144C799.494 59.5462 800.574 60.3526 801.546 62.5414C802.842 65.5366 803.436 68.5318 803.436 77.5174C803.436 84.3142 803.112 88.807 801.654 92.263C800.844 94.2214 799.548 95.2582 797.982 95.2582C796.47 95.2582 795.336 94.2214 794.58 92.6086C793.284 89.8438 792.852 85.2358 792.852 80.743H790.692C790.692 86.9638 791.448 92.6086 793.23 95.9494C794.364 98.1382 795.93 99.4054 797.982 99.4054C800.089 99.4054 801.924 98.023 803.112 95.3734C805.219 90.535 805.596 85.6966 805.596 77.5174Z" fill="black"/>
<path d="M825.679 98.4838L817.579 16.4614H815.635L807.373 98.4838H809.749L812.017 73.831H820.981L823.303 98.4838H825.679ZM820.603 69.6838H812.449L816.499 25.9078L820.603 69.6838Z" fill="black"/>
<path d="M844.225 98.4838V16.4614H831.805V56.8966C831.805 92.839 828.889 94.3366 825.973 94.3366H825.595V98.4838H826.189C830.185 98.4838 833.857 95.6038 833.857 58.3942V20.6086H842.065V98.4838H844.225Z" fill="black"/>
<path d="M862.782 98.4838V94.3366H852.522V59.5462H861.378V55.399H852.522V20.6086H862.782V16.4614H850.362V98.4838H862.782Z" fill="black"/>
<path d="M895.752 98.4838L884.034 55.5142L895.104 16.4614H892.566L881.55 55.7446L893.376 98.4838H895.752ZM881.442 98.4838V16.4614H879.282V98.4838H881.442ZM879.174 55.7446L867.672 16.4614H865.134L876.69 55.5142L864.486 98.4838H866.862L879.174 55.7446Z" fill="black"/>
<path d="M913.224 98.4838V16.4614H911.064V54.7078H900.804V16.4614H898.644V98.4838H900.804V58.855H911.064V98.4838H913.224Z" fill="black"/>
<path d="M921.543 98.4838V16.4614H919.383V98.4838H921.543Z" fill="black"/>
<path d="M942.041 80.743H939.881C939.881 85.2358 939.449 89.8438 938.153 92.6086C937.397 94.2214 936.263 95.2582 934.751 95.2582C933.185 95.2582 931.943 94.2214 931.133 92.3782C929.405 88.3462 929.081 84.775 929.081 57.4726C929.081 30.1702 929.405 26.599 931.133 22.567C931.943 20.7238 933.185 19.687 934.751 19.687C936.263 19.687 937.397 20.7238 938.153 22.3366C939.449 25.1014 939.881 29.7094 939.881 34.2022H942.041C942.041 28.327 941.393 23.0278 939.827 19.5718C938.639 17.0374 937.019 15.5398 934.751 15.5398C932.645 15.5398 930.809 16.9222 929.621 19.5718C927.353 24.5254 926.921 29.1334 926.921 57.4726C926.921 85.8118 927.353 90.4198 929.621 95.3734C930.809 98.023 932.645 99.4054 934.751 99.4054C936.803 99.4054 938.369 98.1382 939.503 95.9494C941.285 92.6086 942.041 86.9638 942.041 80.743Z" fill="black"/>
<path d="M958.461 20.6086V16.4614H943.449V20.6086H949.875V98.4838H952.035V20.6086H958.461Z" fill="black"/>
<path d="M976.511 76.3654C976.511 56.4358 972.515 54.247 968.735 54.247H964.091V16.4614H961.931V98.4838H968.735C972.407 98.4838 976.511 96.0646 976.511 76.3654ZM974.351 76.3654C974.351 92.1478 971.705 94.3366 968.573 94.3366H964.091V58.3942H968.573C971.705 58.3942 974.351 60.583 974.351 76.3654Z" fill="black"/>
<path d="M984.158 98.4838V91.8022H981.026V98.4838H984.158Z" fill="black"/>
<path d="M1007.35 111.501V94.3366H1004.65V16.4614H992.179V53.5558C992.179 69.3382 991.099 83.1622 989.101 94.3366H986.779V111.501H988.939V98.4838H1005.19V111.501H1007.35ZM1002.49 94.3366H991.369C993.421 82.5862 994.285 68.9926 994.285 53.7862V20.6086H1002.49V94.3366Z" fill="black"/>
<path d="M1025.87 57.4726C1025.87 29.1334 1025.44 24.5254 1023.17 19.5718C1021.98 16.9222 1020.15 15.5398 1018.04 15.5398C1015.93 15.5398 1014.1 16.9222 1012.91 19.5718C1010.64 24.5254 1010.21 29.1334 1010.21 57.4726C1010.21 85.8118 1010.64 90.4198 1012.91 95.3734C1014.1 98.023 1015.93 99.4054 1018.04 99.4054C1020.15 99.4054 1021.98 98.023 1023.17 95.3734C1025.44 90.4198 1025.87 85.8118 1025.87 57.4726ZM1023.71 57.4726C1023.71 84.775 1023.39 88.3462 1021.66 92.3782C1020.85 94.2214 1019.61 95.2582 1018.04 95.2582C1016.47 95.2582 1015.23 94.2214 1014.42 92.3782C1012.69 88.3462 1012.37 84.775 1012.37 57.4726C1012.37 30.1702 1012.69 26.599 1014.42 22.567C1015.23 20.7238 1016.47 19.687 1018.04 19.687C1019.61 19.687 1020.85 20.7238 1021.66 22.567C1023.39 26.599 1023.71 30.1702 1023.71 57.4726Z" fill="black"/>
<path d="M1042.54 20.6086V16.4614H1027.53V20.6086H1033.95V98.4838H1036.11V20.6086H1042.54Z" fill="black"/>
<path d="M1060.59 38.5798C1060.59 18.6502 1056.59 16.4614 1052.81 16.4614H1046.01V98.4838H1048.17V60.6982H1052.81C1056.49 60.6982 1060.59 58.279 1060.59 38.5798ZM1058.43 38.5798C1058.43 54.3622 1055.78 56.551 1052.65 56.551H1048.17V20.6086H1052.65C1055.78 20.6086 1058.43 22.7974 1058.43 38.5798Z" fill="black"/>
<path d="M1080.61 98.4838V16.4614H1078.45L1067.43 85.351V16.4614H1065.27V98.4838H1067.43L1078.45 29.5942V98.4838H1080.61Z" fill="black"/>
<path d="M1108.24 98.4838V16.4614H1105.87L1097.5 66.5734L1089.13 16.4614H1086.75V98.4838H1088.91V28.7878L1096.47 73.9462H1098.42L1106.08 27.175V98.4838H1108.24Z" fill="black"/>
<path d="M1128.49 16.4614H1126.12L1119.69 65.4214L1113.1 16.4614H1110.73L1118.56 72.2182L1116.72 85.6966C1115.69 93.0694 1114.45 94.3366 1111.64 94.3366V98.4838C1115.1 98.4838 1117.31 97.447 1118.66 87.5398L1128.49 16.4614Z" fill="black"/>
<path d="M1144.42 0.333374H1142.37C1142.1 5.28698 1140.91 7.93658 1138.64 7.93658C1136.37 7.93658 1135.18 5.28698 1134.91 0.333374H1132.86C1133.24 7.70618 1134.86 11.623 1138.64 11.623C1142.42 11.623 1144.04 7.70618 1144.42 0.333374ZM1146.31 98.4838V16.4614H1144.15L1133.13 85.351V16.4614H1130.97V98.4838H1133.13L1144.15 29.5942V98.4838H1146.31Z" fill="black"/>
<path d="M1164.76 20.6086V16.4614H1149.75V20.6086H1156.18V98.4838H1158.34V20.6086H1164.76Z" fill="black"/>
<path d="M1180.65 98.4838V94.3366H1170.39V59.5462H1179.25V55.399H1170.39V20.6086H1180.65V16.4614H1168.23V98.4838H1180.65Z" fill="black"/>
<path d="M1199.96 80.743H1197.8C1197.8 85.2358 1197.37 89.8438 1196.07 92.6086C1195.32 94.2214 1194.18 95.2582 1192.67 95.2582C1191.1 95.2582 1189.86 94.2214 1189.05 92.3782C1187.32 88.3462 1187 84.775 1187 57.4726C1187 30.1702 1187.32 26.599 1189.05 22.567C1189.86 20.7238 1191.1 19.687 1192.67 19.687C1194.18 19.687 1195.32 20.7238 1196.07 22.3366C1197.37 25.1014 1197.8 29.7094 1197.8 34.2022H1199.96C1199.96 28.327 1199.31 23.0278 1197.75 19.5718C1196.56 17.0374 1194.94 15.5398 1192.67 15.5398C1190.56 15.5398 1188.73 16.9222 1187.54 19.5718C1185.27 24.5254 1184.84 29.1334 1184.84 57.4726C1184.84 85.8118 1185.27 90.4198 1187.54 95.3734C1188.73 98.023 1190.56 99.4054 1192.67 99.4054C1194.72 99.4054 1196.29 98.1382 1197.42 95.9494C1199.2 92.6086 1199.96 86.9638 1199.96 80.743Z" fill="black"/>
<path d="M1205.52 98.4838L1211.3 60.583H1216.81V98.4838H1218.97V16.4614H1212.16C1208.38 16.4614 1204.39 18.6502 1204.39 38.5798C1204.39 52.1734 1206.22 57.9334 1209.25 59.8918L1203.14 98.4838H1205.52ZM1206.55 38.5798C1206.55 26.599 1207.95 20.6086 1212 20.6086H1216.81V56.551H1212C1207.95 56.551 1206.55 50.5606 1206.55 38.5798Z" fill="black"/>
<path d="M1248.89 98.4838V16.4614H1234.31V98.4838H1236.47V20.6086H1246.73V98.4838H1248.89Z" fill="black"/>
<path d="M1269.63 38.5798C1269.63 18.6502 1265.64 16.4614 1261.86 16.4614H1255.05V98.4838H1257.21V60.6982H1261.86C1265.53 60.6982 1269.63 58.279 1269.63 38.5798ZM1267.47 38.5798C1267.47 54.3622 1264.83 56.551 1261.7 56.551H1257.21V20.6086H1261.7C1264.83 20.6086 1267.47 22.7974 1267.47 38.5798Z" fill="black"/>
<path d="M1286.53 98.4838L1278.43 16.4614H1276.48L1268.22 98.4838H1270.6L1272.86 73.831H1281.83L1284.15 98.4838H1286.53ZM1281.45 69.6838H1273.3L1277.35 25.9078L1281.45 69.6838Z" fill="black"/>
<path d="M1303.57 76.2502C1303.57 70.0294 1303.3 63.9238 1301.09 59.2006C1300.28 57.5878 1299.31 56.4358 1298.23 55.975C1299.04 55.5142 1299.95 54.3622 1300.76 52.6342C1302.82 48.2566 1303.14 43.1878 1303.14 37.3126C1303.14 28.6726 1302.65 24.7558 1301.09 21.0694C1299.63 17.6134 1297.9 16.4614 1294.93 16.4614H1288.99V98.4838H1294.88C1297.9 98.4838 1299.74 97.2166 1301.25 93.8758C1302.82 90.4198 1303.57 86.6182 1303.57 76.2502ZM1301.41 76.2502C1301.41 90.6502 1299.09 94.3366 1295.26 94.3366H1291.15V58.1638H1295.26C1299.09 58.1638 1301.41 63.2326 1301.41 76.2502ZM1300.98 37.3126C1300.98 49.2934 1298.82 54.0166 1295.26 54.0166H1291.15V20.6086H1295.26C1298.82 20.6086 1300.98 24.0646 1300.98 37.3126Z" fill="black"/>
<path d="M1324.12 98.4838V16.4614H1321.96L1310.94 85.351V16.4614H1308.78V98.4838H1310.94L1321.96 29.5942V98.4838H1324.12Z" fill="black"/>
<path d="M1345.81 98.4838V16.4614H1333.39V56.8966C1333.39 92.839 1330.48 94.3366 1327.56 94.3366H1327.18V98.4838H1327.78C1331.77 98.4838 1335.44 95.6038 1335.44 58.3942V20.6086H1343.65V98.4838H1345.81Z" fill="black"/>
<path d="M1366.21 106.317C1365.19 104.129 1364.11 102.055 1363.46 99.175C1362.87 96.6406 1362.65 93.415 1362.65 89.7286V25.2166C1362.65 21.5302 1362.87 18.3046 1363.46 15.7702C1364.11 12.8902 1365.19 10.8166 1366.21 8.62778L1364.81 5.63258C1363.46 8.51258 1362.38 10.8166 1361.57 14.1574C1360.76 17.6134 1360.6 20.839 1360.6 24.5254V90.4198C1360.6 94.1062 1360.76 97.3318 1361.57 100.788C1362.27 103.553 1363.46 106.433 1364.81 109.313L1366.21 106.317Z" fill="black"/>
<path d="M1385.23 98.4838V16.4614H1370.65V98.4838H1372.81V20.6086H1383.07V98.4838H1385.23Z" fill="black"/>
<path d="M1405.97 38.5798C1405.97 18.6502 1401.97 16.4614 1398.19 16.4614H1391.39V98.4838H1393.55V60.6982H1398.19C1401.86 60.6982 1405.97 58.279 1405.97 38.5798ZM1403.81 38.5798C1403.81 54.3622 1401.16 56.551 1398.03 56.551H1393.55V20.6086H1398.03C1401.16 20.6086 1403.81 22.7974 1403.81 38.5798Z" fill="black"/>
<path d="M1425.98 98.4838V16.4614H1423.82L1412.81 85.351V16.4614H1410.65V98.4838H1412.81L1423.82 29.5942V98.4838H1425.98Z" fill="black"/>
<path d="M1446.71 98.4838V16.4614H1444.55V54.7078H1434.29V16.4614H1432.13V98.4838H1434.29V58.855H1444.55V98.4838H1446.71Z" fill="black"/>
<path d="M1470.15 114.612V94.3366H1467.45V16.4614H1465.29V94.3366H1455.03V16.4614H1452.86V98.4838H1467.99V114.612H1470.15Z" fill="black"/>
<path d="M1489.36 98.4838V16.4614H1487.2L1476.19 85.351V16.4614H1474.03V98.4838H1476.19L1487.2 29.5942V98.4838H1489.36Z" fill="black"/>
<path d="M1510.08 98.4838V16.4614H1495.5V98.4838H1497.66V20.6086H1507.92V98.4838H1510.08Z" fill="black"/>
<path d="M1518.4 98.4838V16.4614H1516.24V98.4838H1518.4Z" fill="black"/>
<path d="M1539.12 76.2502C1539.12 70.0294 1538.85 63.9238 1536.63 59.2006C1535.82 57.5878 1534.85 56.4358 1533.77 55.975C1534.58 55.5142 1535.5 54.3622 1536.31 52.6342C1538.36 48.2566 1538.69 43.1878 1538.69 37.3126C1538.69 28.6726 1538.2 24.7558 1536.63 21.0694C1535.18 17.6134 1533.45 16.4614 1530.48 16.4614H1524.54V98.4838H1530.42C1533.45 98.4838 1535.28 97.2166 1536.8 93.8758C1538.36 90.4198 1539.12 86.6182 1539.12 76.2502ZM1536.96 76.2502C1536.96 90.6502 1534.64 94.3366 1530.8 94.3366H1526.7V58.1638H1530.8C1534.64 58.1638 1536.96 63.2326 1536.96 76.2502ZM1536.53 37.3126C1536.53 49.2934 1534.37 54.0166 1530.8 54.0166H1526.7V20.6086H1530.8C1534.37 20.6086 1536.53 24.0646 1536.53 37.3126Z" fill="black"/>
<path d="M1548.22 90.4198V24.5254C1548.22 20.839 1548.05 17.6134 1547.24 14.1574C1546.43 10.8166 1545.35 8.51258 1544 5.63258L1542.6 8.62778C1543.63 10.8166 1544.71 12.8902 1545.35 15.7702C1545.95 18.3046 1546.16 21.5302 1546.16 25.2166V89.7286C1546.16 93.415 1545.95 96.6406 1545.35 99.175C1544.71 102.055 1543.63 104.129 1542.6 106.317L1544 109.313C1545.35 106.433 1546.54 103.553 1547.24 100.788C1548.05 97.3318 1548.22 94.1062 1548.22 90.4198Z" fill="black"/>
<path d="M1577.6 76.2502C1577.6 70.0294 1577.33 63.9238 1575.12 59.2006C1574.31 57.5878 1573.34 56.4358 1572.26 55.975C1573.07 55.5142 1573.99 54.3622 1574.8 52.6342C1576.85 48.2566 1577.17 43.1878 1577.17 37.3126C1577.17 28.6726 1576.69 24.7558 1575.12 21.0694C1573.66 17.6134 1571.93 16.4614 1568.96 16.4614H1563.02V98.4838H1568.91C1571.94 98.4838 1573.77 97.2166 1575.28 93.8758C1576.85 90.4198 1577.6 86.6182 1577.6 76.2502ZM1575.44 76.2502C1575.44 90.6502 1573.12 94.3366 1569.29 94.3366H1565.18V58.1638H1569.29C1573.12 58.1638 1575.44 63.2326 1575.44 76.2502ZM1575.01 37.3126C1575.01 49.2934 1572.85 54.0166 1569.29 54.0166H1565.18V20.6086H1569.29C1572.85 20.6086 1575.01 24.0646 1575.01 37.3126Z" fill="black"/>
<path d="M1584.98 98.4838V16.4614H1582.82V98.4838H1584.98Z" fill="black"/>
<path d="M1608.61 111.501V94.3366H1605.91V16.4614H1593.43V53.5558C1593.43 69.3382 1592.35 83.1622 1590.35 94.3366H1588.03V111.501H1590.19V98.4838H1606.45V111.501H1608.61ZM1603.75 94.3366H1592.62C1594.67 82.5862 1595.54 68.9926 1595.54 53.7862V20.6086H1603.75V94.3366Z" fill="black"/>
<path d="M1627.06 98.4838V16.4614H1612.48V98.4838H1614.64V20.6086H1624.9V98.4838H1627.06Z" fill="black"/>
<path d="M1648.12 57.4726C1648.12 29.1334 1647.69 24.5254 1645.42 19.5718C1644.24 16.9222 1642.4 15.5398 1640.29 15.5398C1638.19 15.5398 1636.35 16.9222 1635.16 19.5718C1632.9 24.5254 1632.46 29.1334 1632.46 57.4726C1632.46 85.8118 1632.9 90.4198 1635.16 95.3734C1636.35 98.023 1638.19 99.4054 1640.29 99.4054C1642.4 99.4054 1644.24 98.023 1645.42 95.3734C1647.69 90.4198 1648.12 85.8118 1648.12 57.4726ZM1645.96 57.4726C1645.96 84.775 1645.64 88.3462 1643.91 92.3782C1643.1 94.2214 1641.86 95.2582 1640.29 95.2582C1638.73 95.2582 1637.49 94.2214 1636.68 92.3782C1634.95 88.3462 1634.62 84.775 1634.62 57.4726C1634.62 30.1702 1634.95 26.599 1636.68 22.567C1637.49 20.7238 1638.73 19.687 1640.29 19.687C1641.86 19.687 1643.1 20.7238 1643.91 22.567C1645.64 26.599 1645.96 30.1702 1645.96 57.4726Z" fill="black"/>
<path d="M1668.12 76.2502C1668.12 70.0294 1667.85 63.9238 1665.63 59.2006C1664.82 57.5878 1663.85 56.4358 1662.77 55.975C1663.58 55.5142 1664.5 54.3622 1665.31 52.6342C1667.36 48.2566 1667.69 43.1878 1667.69 37.3126C1667.69 28.6726 1667.2 24.7558 1665.63 21.0694C1664.18 17.6134 1662.45 16.4614 1659.48 16.4614H1653.54V98.4838H1659.42C1662.45 98.4838 1664.28 97.2166 1665.8 93.8758C1667.36 90.4198 1668.12 86.6182 1668.12 76.2502ZM1665.96 76.2502C1665.96 90.6502 1663.64 94.3366 1659.8 94.3366H1655.7V58.1638H1659.8C1663.64 58.1638 1665.96 63.2326 1665.96 76.2502ZM1665.53 37.3126C1665.53 49.2934 1663.37 54.0166 1659.8 54.0166H1655.7V20.6086H1659.8C1663.37 20.6086 1665.53 24.0646 1665.53 37.3126Z" fill="black"/>
<path d="M1675.49 98.4838V16.4614H1673.33V98.4838H1675.49Z" fill="black"/>
<path d="M1699.12 111.501V94.3366H1696.42V16.4614H1683.94V53.5558C1683.94 69.3382 1682.86 83.1622 1680.87 94.3366H1678.54V111.501H1680.7V98.4838H1696.96V111.501H1699.12ZM1694.26 94.3366H1683.13C1685.19 82.5862 1686.05 68.9926 1686.05 53.7862V20.6086H1694.26V94.3366Z" fill="black"/>
<path d="M1717.63 98.4838L1709.53 16.4614H1707.58L1699.32 98.4838H1701.7L1703.97 73.831H1712.93L1715.25 98.4838H1717.63ZM1712.55 69.6838H1704.4L1708.45 25.9078L1712.55 69.6838Z" fill="black"/>
<path d="M1736.17 98.4838V16.4614H1723.75V56.8966C1723.75 92.839 1720.84 94.3366 1717.92 94.3366H1717.54V98.4838H1718.14C1722.13 98.4838 1725.81 95.6038 1725.81 58.3942V20.6086H1734.01V98.4838H1736.17Z" fill="black"/>
<path d="M1756.89 76.3654C1756.89 56.4358 1752.9 54.247 1749.12 54.247H1744.47V16.4614H1742.31V98.4838H1749.12C1752.79 98.4838 1756.89 96.0646 1756.89 76.3654ZM1754.73 76.3654C1754.73 92.1478 1752.09 94.3366 1748.95 94.3366H1744.47V58.3942H1748.95C1752.09 58.3942 1754.73 60.583 1754.73 76.3654Z" fill="black"/>
<path d="M1776.42 98.4838V16.4614H1774.26V54.7078H1764V16.4614H1761.84V98.4838H1764V58.855H1774.26V98.4838H1776.42Z" fill="black"/>
<path d="M1797.48 57.4726C1797.48 29.1334 1797.05 24.5254 1794.78 19.5718C1793.59 16.9222 1791.76 15.5398 1789.65 15.5398C1787.55 15.5398 1785.71 16.9222 1784.52 19.5718C1782.25 24.5254 1781.82 29.1334 1781.82 57.4726C1781.82 85.8118 1782.25 90.4198 1784.52 95.3734C1785.71 98.023 1787.55 99.4054 1789.65 99.4054C1791.76 99.4054 1793.59 98.023 1794.78 95.3734C1797.05 90.4198 1797.48 85.8118 1797.48 57.4726ZM1795.32 57.4726C1795.32 84.775 1795 88.3462 1793.27 92.3782C1792.46 94.2214 1791.22 95.2582 1789.65 95.2582C1788.09 95.2582 1786.84 94.2214 1786.03 92.3782C1784.31 88.3462 1783.98 84.775 1783.98 57.4726C1783.98 30.1702 1784.31 26.599 1786.03 22.567C1786.84 20.7238 1788.09 19.687 1789.65 19.687C1791.22 19.687 1792.46 20.7238 1793.27 22.567C1795 26.599 1795.32 30.1702 1795.32 57.4726Z" fill="black"/>
<path d="M1805.05 98.4838V16.4614H1802.89V98.4838H1805.05ZM1808.67 7.59098V1.83097H1805.97V7.59098H1808.67ZM1801.98 7.59098V1.83097H1799.28V7.59098H1801.98Z" fill="black"/>
<path d="M1832.53 20.6086V16.4614H1820.38V98.4838H1822.54V20.6086H1832.53Z" fill="black"/>
<path d="M1850.85 38.5798C1850.85 18.6502 1846.85 16.4614 1843.07 16.4614H1836.27V98.4838H1838.43V60.6982H1843.07C1846.74 60.6982 1850.85 58.279 1850.85 38.5798ZM1848.69 38.5798C1848.69 54.3622 1846.04 56.551 1842.91 56.551H1838.43V20.6086H1842.91C1846.04 20.6086 1848.69 22.7974 1848.69 38.5798Z" fill="black"/>
<path d="M1870.87 98.4838V16.4614H1868.71L1857.69 85.351V16.4614H1855.53V98.4838H1857.69L1868.71 29.5942V98.4838H1870.87Z" fill="black"/>
</svg>
